<?xml version="1.0" encoding="UTF-8" standalone="no"?>
<!-- Generator: Adobe Illustrator 16.0.3, SVG Export Plug-In . SVG Version: 6.00 Build 0)  -->

<svg
   xmlns:dc="http://purl.org/dc/elements/1.1/"
   xmlns:cc="http://creativecommons.org/ns#"
   xmlns:rdf="http://www.w3.org/1999/02/22-rdf-syntax-ns#"
   xmlns:svg="http://www.w3.org/2000/svg"
   xmlns="http://www.w3.org/2000/svg"
   xmlns:sodipodi="http://sodipodi.sourceforge.net/DTD/sodipodi-0.dtd"
   xmlns:inkscape="http://www.inkscape.org/namespaces/inkscape"
   version="1.0"
   id="Vrstva_1"
   x="0px"
   y="0px"
   width="220.95117px"
   height="44.31348px"
   viewBox="0 0 220.95117 44.31348"
   enable-background="new 0 0 220.95117 44.31348"
   xml:space="preserve"
   inkscape:version="0.48.4 r9939"
   sodipodi:docname="banner.svg"><metadata
   id="metadata69"><rdf:RDF><cc:Work
       rdf:about=""><dc:format>image/svg+xml</dc:format><dc:type
         rdf:resource="http://purl.org/dc/dcmitype/StillImage" /><dc:title></dc:title></cc:Work></rdf:RDF></metadata><defs
   id="defs67">
	
	
	
	
	
	
	
	
	
	
	
	
	
	
	
	
	
	
	
	
	
	
	
	
	
	
	
	
	
</defs><sodipodi:namedview
   pagecolor="#ffffff"
   bordercolor="#666666"
   borderopacity="1"
   objecttolerance="10"
   gridtolerance="10"
   guidetolerance="10"
   inkscape:pageopacity="0"
   inkscape:pageshadow="2"
   inkscape:window-width="1316"
   inkscape:window-height="810"
   id="namedview65"
   showgrid="false"
   inkscape:zoom="1.8103547"
   inkscape:cx="110.47559"
   inkscape:cy="22.15674"
   inkscape:window-x="0"
   inkscape:window-y="0"
   inkscape:window-maximized="0"
   inkscape:current-layer="Vrstva_1" />

<polyline
   id="polyline7"
   points="65.42969,41.02832 65.42969,3.28418 65.92578,3.28418 65.92578,41.02832  "
   style="fill:#ffffff;fill-opacity:1" /><polyline
   id="polyline9"
   points="155.15625,41.02832 155.15625,3.28418 155.65234,3.28418 155.65234,41.02832  "
   style="fill:#ffffff;fill-opacity:1" /><path
   inkscape:connector-curvature="0"
   id="path11"
   d="m 78.97852,8.2373 h 0.32129 v 3.20703 H 78.97852 V 8.2373 z m 1.00488,0.83497 h 0.30371 v 0.42578 c 0.12207,-0.16309 0.25781,-0.28418 0.40625,-0.36426 0.14844,-0.08105 0.30957,-0.12207 0.48535,-0.12207 0.17676,0 0.33398,0.0459 0.47168,0.13574 0.13574,0.08887 0.23828,0.21094 0.30273,0.36328 0.06543,0.15234 0.09863,0.39063 0.09863,0.71289 v 1.2207 H 81.74804 V 10.3125 c 0,-0.27344 -0.01172,-0.45508 -0.03516,-0.54688 C 81.67772,9.60937 81.60936,9.49121 81.50975,9.41113 81.40819,9.333 81.27733,9.29199 81.1162,9.29199 c -0.18457,0 -0.34961,0.0625 -0.49609,0.18359 -0.14551,0.12305 -0.24219,0.27344 -0.28906,0.45508 -0.02734,0.11719 -0.04395,0.33203 -0.04395,0.64453 v 0.86914 H 79.9834 V 9.07227 z m 2.49707,0 h 0.32617 l 0.79297,1.72852 0.78711,-1.72852 h 0.32617 l -1.08594,2.37207 H 83.57324 L 82.48047,9.07227 z m 4.69629,1.58496 0.25684,0.13574 c -0.08398,0.16504 -0.18262,0.2998 -0.29199,0.40039 -0.11133,0.10254 -0.23535,0.17969 -0.37305,0.2334 -0.1377,0.05273 -0.29395,0.08008 -0.46875,0.08008 -0.38672,0 -0.68848,-0.12793 -0.90625,-0.38184 -0.21777,-0.25391 -0.32715,-0.54004 -0.32715,-0.85938 0,-0.2998 0.0918,-0.56934 0.27734,-0.80469 0.2334,-0.2998 0.54688,-0.44922 0.93848,-0.44922 0.4043,0 0.72754,0.15332 0.96777,0.46094 0.17188,0.21582 0.25977,0.48535 0.2627,0.80957 h -2.13184 c 0.0049,0.27734 0.09375,0.50293 0.26367,0.67871 0.16992,0.17773 0.37891,0.26563 0.62988,0.26563 0.12012,0 0.23828,-0.02051 0.35156,-0.06348 0.11426,-0.04199 0.21094,-0.09766 0.29102,-0.16797 0.0791,-0.06835 0.16602,-0.18163 0.25977,-0.33788 m 0,-0.63868 C 87.13672,9.85644 87.07617,9.72656 86.99805,9.6289 86.91993,9.53124 86.81836,9.45214 86.69043,9.39355 86.5625,9.333 86.42871,9.30468 86.28613,9.30468 c -0.23145,0 -0.43164,0.07422 -0.59863,0.22363 -0.12207,0.10938 -0.21387,0.27344 -0.27637,0.49023 h 1.76563 z m 2.09668,-0.68652 -0.19629,0.20313 c -0.16309,-0.1582 -0.32129,-0.2373 -0.47754,-0.2373 -0.09961,0 -0.18359,0.03223 -0.25293,0.09766 -0.07129,0.06543 -0.10645,0.1416 -0.10645,0.22852 0,0.07715 0.0293,0.15039 0.08691,0.22168 0.05859,0.06934 0.17871,0.1543 0.36621,0.25 0.22656,0.11816 0.38086,0.23047 0.46191,0.33984 0.08008,0.11035 0.12109,0.23438 0.12109,0.37402 0,0.19238 -0.06934,0.3584 -0.20605,0.49414 -0.13574,0.13379 -0.30664,0.20313 -0.51172,0.20313 -0.1377,0 -0.26758,-0.03027 -0.39258,-0.09082 -0.12402,-0.05957 -0.22559,-0.1416 -0.30762,-0.24609 l 0.19238,-0.21777 c 0.1543,0.17578 0.32031,0.26367 0.49414,0.26367 0.12207,0 0.22656,-0.03809 0.31152,-0.11719 0.08691,-0.07813 0.12891,-0.1709 0.12891,-0.27734 0,-0.08691 -0.02832,-0.16602 -0.08496,-0.23242 -0.05664,-0.06738 -0.18359,-0.15234 -0.38379,-0.25391 -0.21289,-0.11035 -0.3584,-0.21973 -0.43555,-0.32617 -0.07715,-0.1084 -0.11621,-0.23047 -0.11621,-0.36914 0,-0.18066 0.06152,-0.3291 0.18457,-0.44922 0.12305,-0.11914 0.27832,-0.17871 0.46582,-0.17871 0.2178,-2e-5 0.43752,0.1074 0.65823,0.32029 M 90.0791,8.19238 h 0.30859 v 0.87988 h 0.4834 v 0.26172 h -0.4834 v 2.11035 H 90.0791 V 9.33398 H 89.66308 V 9.07227 H 90.0791 V 8.19238 z m 1.35449,-0.0957 c 0.06836,0 0.12891,0.02441 0.17871,0.07324 0.04883,0.0498 0.07422,0.10938 0.07422,0.17969 0,0.06836 -0.02539,0.12695 -0.07422,0.17676 -0.0498,0.04883 -0.11035,0.07422 -0.17871,0.07422 -0.06836,0 -0.12695,-0.02539 -0.17773,-0.07422 -0.04883,-0.0498 -0.07324,-0.1084 -0.07324,-0.17676 0,-0.07031 0.02441,-0.12988 0.07324,-0.17969 0.05078,-0.04883 0.10937,-0.07324 0.17773,-0.07324 m -0.15234,0.97559 h 0.30664 v 2.37207 H 91.28125 V 9.07227 z M 94.52246,9.56543 94.28027,9.7168 C 94.07031,9.43946 93.78515,9.29981 93.42382,9.29981 c -0.28809,0 -0.5293,0.09375 -0.7207,0.27832 -0.19141,0.18652 -0.28613,0.41211 -0.28613,0.67871 0,0.17383 0.04297,0.33594 0.13184,0.48828 0.08789,0.15234 0.20703,0.27148 0.36035,0.35547 0.1543,0.08398 0.32617,0.12598 0.5166,0.12598 0.34863,0 0.63379,-0.1377 0.85449,-0.41602 l 0.24219,0.15918 c -0.11426,0.1709 -0.26465,0.30176 -0.45703,0.39551 -0.19141,0.09277 -0.40918,0.1416 -0.65234,0.1416 -0.375,0 -0.68555,-0.12012 -0.93359,-0.3584 -0.24609,-0.23926 -0.37012,-0.52832 -0.37012,-0.87012 0,-0.22949 0.05664,-0.44434 0.17285,-0.63867 0.11621,-0.19824 0.27441,-0.35156 0.47754,-0.46191 0.2002,-0.11035 0.42773,-0.16602 0.67773,-0.16602 0.15723,0 0.30664,0.02441 0.4541,0.07129 0.14551,0.0498 0.26953,0.11133 0.37109,0.18848 0.10156,0.07715 0.18848,0.1748 0.25977,0.29394 m 2.58399,1.0918 0.25684,0.13574 c -0.08496,0.16504 -0.18164,0.2998 -0.29199,0.40039 -0.11133,0.10254 -0.23535,0.17969 -0.37305,0.2334 -0.1377,0.05273 -0.29492,0.08008 -0.46875,0.08008 -0.38672,0 -0.68945,-0.12793 -0.90723,-0.38184 -0.21778,-0.25391 -0.32715,-0.54004 -0.32715,-0.85938 0,-0.2998 0.09277,-0.56934 0.27734,-0.80469 0.2334,-0.2998 0.54688,-0.44922 0.93848,-0.44922 0.4043,0 0.72754,0.15332 0.96875,0.46094 0.17188,0.21582 0.25879,0.48535 0.26172,0.80957 h -2.13184 c 0.0059,0.27734 0.09375,0.50293 0.26367,0.67871 0.16992,0.17773 0.37988,0.26563 0.62988,0.26563 0.12012,0 0.23828,-0.02051 0.35254,-0.06348 0.11328,-0.04199 0.21094,-0.09766 0.29004,-0.16797 0.08106,-0.06835 0.16797,-0.18163 0.26075,-0.33788 m 0,-0.63868 C 97.06543,9.85644 97.00586,9.72656 96.92872,9.6289 96.85059,9.53124 96.74708,9.45214 96.61915,9.39355 96.49122,9.333 96.35743,9.30468 96.21485,9.30468 c -0.23145,0 -0.43164,0.07422 -0.59766,0.22363 -0.12207,0.10938 -0.21484,0.27344 -0.27734,0.49023 h 1.7666 z m 4.50781,-1.86132 v 3.28711 h -0.30176 v -0.40723 c -0.12695,0.15527 -0.27148,0.27246 -0.42871,0.35156 -0.16016,0.07813 -0.33398,0.11816 -0.52344,0.11816 -0.33594,0 -0.62207,-0.12305 -0.86133,-0.36621 -0.23633,-0.24414 -0.35547,-0.53906 -0.35547,-0.88867 0,-0.3418 0.12012,-0.63379 0.35938,-0.87598 0.24023,-0.24219 0.5293,-0.36426 0.86523,-0.36426 0.19531,0 0.37109,0.04199 0.5293,0.12402 0.1582,0.08398 0.2959,0.20801 0.41504,0.37305 V 8.15723 h 0.30176 z m -1.22071,1.14843 c -0.16992,0 -0.32715,0.04199 -0.47266,0.12598 -0.14355,0.08398 -0.25781,0.20117 -0.3418,0.35254 -0.08496,0.15137 -0.12891,0.31055 -0.12891,0.47949 0,0.16699 0.04395,0.32715 0.12891,0.47949 0.08691,0.15234 0.20117,0.27148 0.34668,0.35645 0.14453,0.08496 0.29883,0.12695 0.46484,0.12695 0.16797,0 0.32617,-0.04199 0.47559,-0.12598 0.15039,-0.08398 0.26465,-0.19824 0.34473,-0.3418 0.081,-0.14453 0.12109,-0.30664 0.12109,-0.48633 0,-0.27441 -0.0908,-0.50488 -0.27051,-0.68945 -0.18065,-0.18456 -0.40428,-0.27734 -0.66796,-0.27734 m 3.03418,-0.29394 c 0.36328,0 0.66699,0.13281 0.90527,0.39746 0.21973,0.24121 0.32715,0.52637 0.32715,0.85645 0,0.33105 -0.11523,0.62207 -0.34473,0.86914 -0.23047,0.24707 -0.52637,0.37207 -0.8877,0.37207 -0.36328,0 -0.66016,-0.125 -0.8916,-0.37207 -0.22949,-0.24707 -0.34473,-0.53809 -0.34473,-0.86914 0,-0.32813 0.1084,-0.61328 0.32617,-0.85449 0.24025,-0.26661 0.54396,-0.39942 0.91017,-0.39942 m 0,0.29883 c -0.25293,0 -0.4707,0.09375 -0.65234,0.28125 -0.18164,0.1875 -0.27246,0.41406 -0.27246,0.68066 0,0.1709 0.041,0.33105 0.12402,0.47852 0.083,0.14941 0.19434,0.26367 0.33594,0.34375 0.1416,0.08105 0.2959,0.12109 0.46484,0.12109 0.16797,0 0.32227,-0.04004 0.46387,-0.12109 0.14063,-0.08008 0.25293,-0.19434 0.33594,-0.34375 0.083,-0.14746 0.12402,-0.30762 0.12402,-0.47852 0,-0.2666 -0.0908,-0.49316 -0.27441,-0.68066 -0.18164,-0.1875 -0.39844,-0.28125 -0.64942,-0.28125 m 2.81153,-0.23828 h 0.3252 l 0.79297,1.72852 0.78809,-1.72852 h 0.32617 l -1.08496,2.37207 h -0.0547 l -1.09278,-2.37207 z m 5.0625,0 v 2.37207 H 111 v -0.40723 c -0.12793,0.15527 -0.27051,0.27246 -0.43066,0.35156 -0.15918,0.07813 -0.33301,0.11816 -0.52246,0.11816 -0.33594,0 -0.62109,-0.12305 -0.85938,-0.36621 -0.2373,-0.24414 -0.35645,-0.53906 -0.35645,-0.88867 0,-0.3418 0.12012,-0.63379 0.36035,-0.87598 0.23926,-0.24219 0.52832,-0.36426 0.86523,-0.36426 0.19434,0 0.37109,0.04199 0.52734,0.12402 0.1582,0.08398 0.29688,0.20801 0.41602,0.37305 V 9.07227 h 0.30177 z m -1.22168,0.23339 c -0.16992,0 -0.32715,0.04199 -0.4707,0.12598 -0.14453,0.08398 -0.25879,0.20117 -0.34277,0.35254 -0.0859,0.15137 -0.12695,0.31055 -0.12695,0.47949 0,0.16699 0.041,0.32715 0.12793,0.47949 0.0859,0.15234 0.20117,0.27148 0.3457,0.35645 0.14453,0.08497 0.29883,0.12695 0.46484,0.12695 0.16699,0 0.3252,-0.04199 0.47559,-0.12598 0.14844,-0.08398 0.26465,-0.19824 0.34473,-0.3418 0.0811,-0.14453 0.12207,-0.30664 0.12207,-0.48633 0,-0.27441 -0.0908,-0.50488 -0.27246,-0.68945 -0.18068,-0.18456 -0.40236,-0.27734 -0.66798,-0.27734 m 3.10156,0.02637 -0.19727,0.20313 c -0.16309,-0.1582 -0.32324,-0.2373 -0.47852,-0.2373 -0.0977,0 -0.18262,0.03223 -0.25391,0.09766 -0.0693,0.06543 -0.10449,0.1416 -0.10449,0.22852 0,0.07715 0.0293,0.15039 0.0869,0.22168 0.0576,0.06934 0.17969,0.1543 0.36621,0.25 0.22656,0.11816 0.38086,0.23047 0.46191,0.33984 0.0801,0.11035 0.12109,0.23438 0.12109,0.37402 0,0.19238 -0.0693,0.3584 -0.20605,0.49414 -0.13574,0.13379 -0.30762,0.20313 -0.51074,0.20313 -0.13867,0 -0.26855,-0.03027 -0.39258,-0.09082 -0.12402,-0.05957 -0.22656,-0.1416 -0.30859,-0.24609 l 0.19238,-0.21777 c 0.1543,0.17578 0.32031,0.26367 0.49414,0.26367 0.12207,0 0.22656,-0.03809 0.3125,-0.11719 0.0859,-0.07813 0.12891,-0.1709 0.12891,-0.27734 0,-0.08691 -0.0293,-0.16602 -0.085,-0.23242 -0.0576,-0.06738 -0.18555,-0.15234 -0.38379,-0.25391 -0.21484,-0.11035 -0.35938,-0.21973 -0.4375,-0.32617 -0.0762,-0.1084 -0.11426,-0.23047 -0.11426,-0.36914 0,-0.18066 0.0606,-0.3291 0.18359,-0.44922 0.12207,-0.11914 0.27832,-0.17871 0.46582,-0.17871 0.21779,-2e-5 0.43752,0.1074 0.6592,0.32029 M 112.6562,8.64355 h -0.30176 l -0.63281,-0.56152 h 0.39258 L 112.5,8.41406 112.89844,8.08203 h 0.40625 l -0.64844,0.56152 z m 1.01953,0.42872 h 0.30664 v 2.37207 h -0.30664 V 9.07227 z m 0.30078,-1.11231 h 0.46875 l -0.64355,0.67285 h -0.30078 l 0.47558,-0.67285 z m 1.89258,3.48438 V 8.15723 h 0.30469 v 1.32324 c 0.12793,-0.15723 0.27051,-0.27344 0.42871,-0.35254 0.15918,-0.07715 0.33203,-0.11621 0.52148,-0.11621 0.33496,0 0.62109,0.12207 0.86035,0.36523 0.2373,0.24316 0.35547,0.53809 0.35547,0.88672 0,0.34277 -0.11914,0.63574 -0.35938,0.87891 -0.24023,0.24219 -0.52832,0.36426 -0.86523,0.36426 -0.19434,0 -0.36914,-0.04199 -0.52539,-0.125 -0.15723,-0.08203 -0.2959,-0.20605 -0.41602,-0.37207 v 0.43457 h -0.30468 z m 1.2207,-0.2334 c 0.17188,0 0.32715,-0.04199 0.47168,-0.125 0.14453,-0.08398 0.25879,-0.2002 0.34375,-0.35156 0.085,-0.15136 0.12793,-0.31055 0.12793,-0.48047 0,-0.16797 -0.043,-0.32813 -0.12891,-0.48145 -0.0859,-0.15234 -0.20117,-0.27148 -0.3457,-0.35645 -0.14453,-0.08497 -0.29785,-0.12695 -0.46289,-0.12695 -0.16699,0 -0.3252,0.04199 -0.47656,0.12695 -0.15039,0.08496 -0.26563,0.2002 -0.34668,0.34375 -0.0801,0.14355 -0.12109,0.30566 -0.12109,0.48633 0,0.27441 0.0908,0.50293 0.27246,0.68848 0.17969,0.18359 0.40332,0.27637 0.66601,0.27637 m 1.76758,-2.13867 h 0.30664 v 1.1084 c 0,0.26953 0.0156,0.45605 0.0439,0.55762 0.0439,0.14551 0.12598,0.25879 0.24902,0.34473 0.12305,0.08398 0.27051,0.12598 0.43945,0.12598 0.1709,0 0.31445,-0.04102 0.43262,-0.12305 0.11914,-0.08203 0.2002,-0.18945 0.24609,-0.32324 0.0303,-0.0918 0.0449,-0.28613 0.0449,-0.58203 v -1.1084 h 0.3125 v 1.16406 c 0,0.32715 -0.0381,0.57422 -0.11426,0.74023 -0.0771,0.16602 -0.19141,0.29492 -0.34473,0.38867 -0.15332,0.09277 -0.3457,0.1416 -0.57715,0.1416 -0.23145,0 -0.42285,-0.04883 -0.57813,-0.1416 -0.15527,-0.09375 -0.26953,-0.22461 -0.34668,-0.39258 -0.0762,-0.16797 -0.11426,-0.41992 -0.11426,-0.75684 V 9.07227 z m 5.1211,-0.91504 v 3.28711 h -0.30176 v -0.40723 c -0.12695,0.15527 -0.27148,0.27246 -0.42969,0.35156 -0.16016,0.07813 -0.33398,0.11816 -0.52246,0.11816 -0.33594,0 -0.62207,-0.12305 -0.86133,-0.36621 -0.2373,-0.24414 -0.35547,-0.53906 -0.35547,-0.88867 0,-0.3418 0.11914,-0.63379 0.35938,-0.87598 0.24024,-0.24219 0.5293,-0.36426 0.86523,-0.36426 0.19531,0 0.37207,0.04199 0.5293,0.12402 0.15723,0.08398 0.2959,0.20801 0.41504,0.37305 V 8.15723 h 0.30176 z m -1.22071,1.14843 c -0.1709,0 -0.32715,0.04199 -0.47168,0.12598 -0.14355,0.08398 -0.25879,0.20117 -0.34277,0.35254 -0.085,0.15137 -0.12891,0.31055 -0.12891,0.47949 0,0.16699 0.044,0.32715 0.12891,0.47949 0.0869,0.15234 0.20117,0.27148 0.3457,0.35645 0.14551,0.08496 0.29883,0.12695 0.4668,0.12695 0.16602,0 0.32422,-0.04199 0.47461,-0.12598 0.15039,-0.08399 0.26465,-0.19824 0.34473,-0.3418 0.0811,-0.14453 0.12207,-0.30664 0.12207,-0.48633 0,-0.27441 -0.0918,-0.50488 -0.27148,-0.68945 -0.18165,-0.18456 -0.40431,-0.27734 -0.66798,-0.27734 m 3.03321,-0.29394 c 0.36426,0 0.66699,0.13281 0.90625,0.39746 0.21875,0.24121 0.32715,0.52637 0.32715,0.85645 0,0.33105 -0.11523,0.62207 -0.34473,0.86914 -0.23047,0.24707 -0.52734,0.37207 -0.88867,0.37207 -0.3623,0 -0.66016,-0.125 -0.89063,-0.37207 -0.23047,-0.24707 -0.34473,-0.53809 -0.34473,-0.86914 0,-0.32813 0.1084,-0.61328 0.3252,-0.85449 0.24023,-0.26661 0.54492,-0.39942 0.91016,-0.39942 m 0,0.29883 c -0.25293,0 -0.46973,0.09375 -0.65137,0.28125 -0.18262,0.1875 -0.27246,0.41406 -0.27246,0.68066 0,0.1709 0.041,0.33105 0.12402,0.47852 0.083,0.14941 0.19434,0.26367 0.33594,0.34375 0.1416,0.08105 0.29492,0.12109 0.46387,0.12109 0.16797,0 0.32324,-0.04004 0.46484,-0.12109 0.14063,-0.08008 0.25293,-0.19434 0.33594,-0.34375 0.083,-0.14746 0.125,-0.30762 0.125,-0.47852 0,-0.2666 -0.0928,-0.49316 -0.27539,-0.68066 -0.18164,-0.1875 -0.39942,-0.28125 -0.65039,-0.28125 m 1.76269,-0.23828 h 0.30566 v 1.1084 c 0,0.26953 0.0156,0.45605 0.0449,0.55762 0.0439,0.14551 0.12598,0.25879 0.24902,0.34473 0.12305,0.08398 0.26855,0.12598 0.43945,0.12598 0.16992,0 0.31445,-0.04102 0.43262,-0.12305 0.11914,-0.08203 0.2002,-0.18945 0.24512,-0.32324 0.0312,-0.0918 0.0459,-0.28613 0.0459,-0.58203 v -1.1084 h 0.31152 v 1.16406 c 0,0.32715 -0.0381,0.57422 -0.11328,0.74023 -0.0772,0.16602 -0.19141,0.29492 -0.3457,0.38867 -0.15234,0.09277 -0.34473,0.1416 -0.57617,0.1416 -0.23144,0 -0.42383,-0.04883 -0.57813,-0.1416 -0.15527,-0.09375 -0.27051,-0.22461 -0.34668,-0.39258 -0.0762,-0.16797 -0.11426,-0.41992 -0.11426,-0.75684 V 9.07227 z m 5.05469,0.49316 -0.24219,0.15137 c -0.20996,-0.27734 -0.49512,-0.41699 -0.85645,-0.41699 -0.28906,0 -0.5293,0.09375 -0.7207,0.27832 -0.19141,0.18652 -0.28711,0.41211 -0.28711,0.67871 0,0.17383 0.0439,0.33594 0.13281,0.48828 0.0879,0.15234 0.20898,0.27148 0.36035,0.35547 0.1543,0.08398 0.32617,0.12598 0.51758,0.12598 0.34766,0 0.63281,-0.1377 0.85352,-0.41602 l 0.24219,0.15918 c -0.11426,0.1709 -0.26563,0.30176 -0.45703,0.39551 -0.19141,0.09277 -0.40918,0.1416 -0.65332,0.1416 -0.37402,0 -0.68457,-0.12012 -0.93262,-0.3584 -0.24707,-0.23926 -0.37012,-0.52832 -0.37012,-0.87012 0,-0.22949 0.0566,-0.44434 0.17285,-0.63867 0.11621,-0.19824 0.27441,-0.35156 0.47754,-0.46191 0.2002,-0.11035 0.42773,-0.16602 0.67773,-0.16602 0.15723,0 0.30762,0.02441 0.4541,0.07129 0.14551,0.0498 0.26855,0.11133 0.37109,0.18848 0.10158,0.07714 0.18849,0.1748 0.25978,0.29394 m 0.58691,-0.49316 h 0.30371 v 0.42578 c 0.12207,-0.16309 0.25879,-0.28418 0.40625,-0.36426 0.14844,-0.08105 0.30957,-0.12207 0.48535,-0.12207 0.17578,0 0.33398,0.0459 0.47168,0.13574 0.13574,0.08887 0.23828,0.21094 0.30273,0.36328 0.0654,0.15234 0.0986,0.39063 0.0986,0.71289 v 1.2207 h -0.30371 V 10.3125 c 0,-0.27344 -0.0117,-0.45508 -0.0332,-0.54688 -0.0371,-0.15625 -0.10547,-0.27441 -0.20605,-0.35449 -0.10059,-0.07813 -0.23145,-0.11914 -0.39258,-0.11914 -0.18457,0 -0.34961,0.0625 -0.49609,0.18359 -0.14551,0.12305 -0.24219,0.27344 -0.28906,0.45508 -0.0273,0.11719 -0.0439,0.33203 -0.0439,0.64453 v 0.86914 h -0.30371 V 9.07227 z m 3.84375,-0.06055 c 0.36621,0 0.66699,0.13281 0.9082,0.39746 0.21777,0.24121 0.32715,0.52637 0.32715,0.85645 0,0.33105 -0.11523,0.62207 -0.34473,0.86914 -0.23242,0.24707 -0.52734,0.37207 -0.89063,0.37207 -0.36133,0 -0.6582,-0.125 -0.88965,-0.37207 -0.23047,-0.24707 -0.34473,-0.53809 -0.34473,-0.86914 0,-0.32813 0.10742,-0.61328 0.32617,-0.85449 0.23928,-0.26661 0.54396,-0.39942 0.90822,-0.39942 m 0,0.29883 c -0.25195,0 -0.46875,0.09375 -0.65039,0.28125 -0.18164,0.1875 -0.27344,0.41406 -0.27344,0.68066 0,0.1709 0.041,0.33105 0.12402,0.47852 0.084,0.14941 0.19531,0.26367 0.33594,0.34375 0.1416,0.08105 0.2959,0.12109 0.46387,0.12109 0.16895,0 0.32422,-0.04004 0.46484,-0.12109 0.14063,-0.08008 0.25391,-0.19434 0.33594,-0.34375 0.082,-0.14746 0.125,-0.30762 0.125,-0.47852 0,-0.2666 -0.0918,-0.49316 -0.27441,-0.68066 -0.18164,-0.1875 -0.39844,-0.28125 -0.65137,-0.28125 m 2.99414,0.02148 -0.19629,0.20313 c -0.16211,-0.1582 -0.32129,-0.2373 -0.47754,-0.2373 -0.0986,0 -0.18262,0.03223 -0.25293,0.09766 C 139.03516,9.46094 139,9.53711 139,9.62402 c 0,0.07715 0.0293,0.15039 0.0879,0.22168 0.0576,0.06934 0.17969,0.1543 0.36523,0.25 0.22754,0.11816 0.38086,0.23047 0.46191,0.33984 0.0811,0.11035 0.12109,0.23438 0.12109,0.37402 0,0.19238 -0.0674,0.3584 -0.20605,0.49414 -0.13477,0.13379 -0.30664,0.20313 -0.51172,0.20313 -0.13574,0 -0.2666,-0.03027 -0.3916,-0.09082 -0.12402,-0.05957 -0.22656,-0.1416 -0.30762,-0.24609 l 0.19141,-0.21777 c 0.15625,0.17578 0.32031,0.26367 0.49512,0.26367 0.12207,0 0.22559,-0.03809 0.31055,-0.11719 0.0869,-0.07813 0.12891,-0.1709 0.12891,-0.27734 0,-0.08691 -0.0264,-0.16602 -0.085,-0.23242 -0.0566,-0.06738 -0.18359,-0.15234 -0.38281,-0.25391 -0.21387,-0.11035 -0.35938,-0.21973 -0.43555,-0.32617 -0.0772,-0.1084 -0.11621,-0.23047 -0.11621,-0.36914 0,-0.18066 0.0605,-0.3291 0.18359,-0.44922 0.12305,-0.11914 0.27832,-0.17871 0.46582,-0.17871 0.21875,0 0.4375,0.10742 0.6582,0.32031 m 0.80664,-1.13965 h 0.30859 v 0.87988 h 0.48242 v 0.26172 h -0.48242 v 2.11035 h -0.30859 V 9.33398 h -0.41602 V 9.07227 h 0.41602 V 8.19238 z m 1.3545,-0.0957 c 0.0693,0 0.12793,0.02441 0.17773,0.07324 0.0488,0.0498 0.0742,0.10938 0.0742,0.17969 0,0.06836 -0.0254,0.12695 -0.0742,0.17676 -0.0498,0.04883 -0.1084,0.07422 -0.17773,0.07422 -0.0693,0 -0.12793,-0.02539 -0.17676,-0.07422 -0.0498,-0.0498 -0.0742,-0.1084 -0.0742,-0.17676 0,-0.07031 0.0244,-0.12988 0.0742,-0.17969 0.0488,-0.04883 0.10742,-0.07324 0.17676,-0.07324 m -0.15332,0.97559 h 0.30762 v 2.37207 h -0.30762"
   style="fill:#ffffff;fill-opacity:1" /><path
   inkscape:connector-curvature="0"
   id="path13"
   d="m 77.42383,29.36426 h 0.49707 c 0.28418,0 0.47656,0.01172 0.57617,0.03711 0.14258,0.03418 0.25879,0.10742 0.34961,0.2168 0.08984,0.1084 0.13477,0.24609 0.13477,0.41016 0,0.16602 -0.04395,0.30371 -0.13281,0.41113 -0.08691,0.1084 -0.20898,0.18066 -0.36426,0.21777 -0.11133,0.02734 -0.32324,0.04199 -0.63379,0.04199 h -0.17773 v 1.1582 h -0.24902 v -2.49316 z m 0.24902,0.24121 v 0.84863 l 0.42188,0.0049 c 0.1709,0 0.2959,-0.0166 0.375,-0.0459 0.0791,-0.03223 0.1416,-0.08203 0.18652,-0.15137 0.0459,-0.06934 0.06836,-0.14648 0.06836,-0.2334 0,-0.08398 -0.02246,-0.15918 -0.06836,-0.22949 C 78.61133,29.7295 78.55078,29.6797 78.47656,29.6504 78.40234,29.62208 78.2832,29.60548 78.11426,29.60548 h -0.44141 z m 2.85742,-0.30469 c 0.37695,0 0.69238,0.12598 0.94629,0.37891 0.25488,0.25195 0.38184,0.5625 0.38184,0.92969 0,0.36523 -0.12695,0.67578 -0.38086,0.92969 -0.25293,0.25391 -0.5625,0.38184 -0.92773,0.38184 -0.36914,0 -0.68066,-0.12695 -0.93457,-0.37988 -0.25586,-0.25293 -0.38281,-0.56055 -0.38281,-0.91895 0,-0.24023 0.05859,-0.46094 0.1748,-0.66602 0.11523,-0.20508 0.27246,-0.36523 0.47363,-0.48145 0.20019,-0.11621 0.41602,-0.17383 0.64941,-0.17383 m 0.01172,0.24512 c -0.18457,0 -0.35938,0.04785 -0.52441,0.14258 -0.16504,0.09766 -0.29297,0.22656 -0.38672,0.38965 -0.0918,0.16309 -0.13867,0.34473 -0.13867,0.54395 0,0.2959 0.10254,0.5459 0.30762,0.75 0.20508,0.2041 0.45313,0.30566 0.74219,0.30566 0.19238,0 0.37207,-0.04688 0.53613,-0.13965 0.16504,-0.0957 0.29297,-0.22363 0.38477,-0.38672 0.0918,-0.16113 0.1377,-0.34277 0.1377,-0.54199 0,-0.19629 -0.0459,-0.37598 -0.1377,-0.53613 -0.0918,-0.15918 -0.22168,-0.28711 -0.3877,-0.38477 -0.16797,-0.09473 -0.34571,-0.14258 -0.53321,-0.14258 m 1.74805,2.31152 v -2.49316 h 0.5166 c 0.37305,0 0.64355,0.0293 0.8125,0.08984 0.24219,0.08496 0.43066,0.23145 0.56641,0.43945 0.1377,0.20996 0.2041,0.45898 0.2041,0.74805 0,0.25 -0.05273,0.46973 -0.16113,0.66016 -0.10742,0.19043 -0.24805,0.33008 -0.4209,0.41992 -0.17188,0.09082 -0.41406,0.13574 -0.72363,0.13574 h -0.79395 z m 0.23926,-0.23437 h 0.28711 c 0.3457,0 0.58398,-0.02246 0.71777,-0.06543 0.18652,-0.06152 0.33496,-0.1709 0.44141,-0.33008 0.1084,-0.15918 0.16113,-0.35254 0.16113,-0.58203 0,-0.24023 -0.05664,-0.44531 -0.17383,-0.61719 -0.11621,-0.1709 -0.27832,-0.28613 -0.4873,-0.35059 -0.1543,-0.04785 -0.41211,-0.07227 -0.77051,-0.07227 H 82.5293 v 2.01759 z m 2.34179,-2.25879 h 0.49805 c 0.2832,0 0.47559,0.01172 0.57617,0.03711 0.1416,0.03418 0.25879,0.10742 0.34863,0.2168 0.09082,0.1084 0.13574,0.24609 0.13574,0.41016 0,0.16602 -0.04395,0.30371 -0.13281,0.41113 -0.08789,0.1084 -0.20898,0.18066 -0.36426,0.21777 -0.1123,0.02734 -0.32422,0.04199 -0.63379,0.04199 h -0.17773 v 1.1582 h -0.25 v -2.49316 z m 0.25,0.24121 v 0.84863 l 0.42188,0.0049 c 0.17188,0 0.2959,-0.0166 0.375,-0.0459 0.0791,-0.03223 0.14063,-0.08203 0.18555,-0.15137 0.0459,-0.06934 0.06836,-0.14648 0.06836,-0.2334 0,-0.08398 -0.02246,-0.15918 -0.06836,-0.22949 C 86.05859,29.72949 86,29.67969 85.92578,29.65039 85.85058,29.62207 85.73047,29.60547 85.56152,29.60547 h -0.44043 z m 2.85547,-0.30469 c 0.37793,0 0.69434,0.12598 0.94922,0.37891 0.25293,0.25195 0.38086,0.5625 0.38086,0.92969 0,0.36523 -0.12793,0.67578 -0.38086,0.92969 -0.25293,0.25391 -0.5625,0.38184 -0.92773,0.38184 -0.36914,0 -0.68164,-0.12695 -0.93652,-0.37988 -0.25391,-0.25293 -0.38086,-0.56055 -0.38086,-0.91895 0,-0.24023 0.05859,-0.46094 0.17383,-0.66602 0.11524,-0.20508 0.27344,-0.36523 0.47363,-0.48145 0.19921,-0.11621 0.41699,-0.17383 0.64843,-0.17383 m 0.01367,0.24512 c -0.18555,0 -0.35938,0.04785 -0.52441,0.14258 -0.16504,0.09766 -0.29395,0.22656 -0.38672,0.38965 -0.09277,0.16309 -0.13965,0.34473 -0.13965,0.54395 0,0.2959 0.10352,0.5459 0.30859,0.75 0.20507,0.2041 0.45313,0.30566 0.74219,0.30566 0.19238,0 0.37207,-0.04688 0.53516,-0.13965 0.16406,-0.0957 0.29297,-0.22363 0.38574,-0.38672 0.0918,-0.16113 0.1377,-0.34277 0.1377,-0.54199 0,-0.19629 -0.0459,-0.37598 -0.1377,-0.53613 -0.09277,-0.15918 -0.22168,-0.28711 -0.38965,-0.38477 -0.16699,-0.09473 -0.34472,-0.14258 -0.53125,-0.14258 m 1.83106,-0.18164 h 0.49512 c 0.27832,0 0.46582,0.01172 0.56445,0.0332 0.14648,0.03418 0.26758,0.10742 0.36133,0.21875 0.0918,0.11035 0.1377,0.24805 0.1377,0.41016 0,0.13672 -0.03223,0.25488 -0.09473,0.3584 -0.06445,0.10254 -0.15625,0.17969 -0.27441,0.2334 -0.11914,0.05273 -0.2832,0.0791 -0.49121,0.08105 l 0.89648,1.1582 h -0.30957 l -0.89453,-1.1582 h -0.1416 v 1.1582 H 89.8213 v -2.49316 z m 0.24902,0.24414 v 0.84766 l 0.42871,0.0029 c 0.16602,0 0.28906,-0.0166 0.36816,-0.04785 0.08105,-0.03125 0.14258,-0.08105 0.18652,-0.15137 0.04492,-0.06934 0.06738,-0.14844 0.06738,-0.2334 0,-0.08398 -0.02246,-0.15918 -0.06836,-0.22754 C 91.0078,29.73047 90.9492,29.68164 90.87499,29.65137 90.80077,29.62305 90.6787,29.6084 90.5078,29.6084 h -0.43749 z m 2.96289,-0.30762 c 0.37793,0 0.69336,0.12598 0.94824,0.37891 0.25293,0.25195 0.38184,0.5625 0.38184,0.92969 0,0.36523 -0.12891,0.67578 -0.38184,0.92969 -0.25391,0.25391 -0.5625,0.38184 -0.92871,0.38184 -0.36816,0 -0.67969,-0.12695 -0.93457,-0.37988 -0.25391,-0.25293 -0.38184,-0.56055 -0.38184,-0.91895 0,-0.24023 0.05859,-0.46094 0.1748,-0.66602 0.11426,-0.20508 0.27246,-0.36523 0.47266,-0.48145 0.2002,-0.11622 0.417,-0.17383 0.64942,-0.17383 m 0.0127,0.24512 c -0.18652,0 -0.35938,0.04785 -0.52441,0.14258 -0.16504,0.09766 -0.29395,0.22656 -0.38672,0.38965 -0.09277,0.16309 -0.13867,0.34473 -0.13867,0.54395 0,0.2959 0.10254,0.5459 0.30762,0.75 0.20508,0.2041 0.45313,0.30566 0.74219,0.30566 0.19336,0 0.37109,-0.04688 0.53613,-0.13965 0.16406,-0.0957 0.29297,-0.22363 0.38477,-0.38672 0.09082,-0.16113 0.1377,-0.34277 0.1377,-0.54199 0,-0.19629 -0.04688,-0.37598 -0.1377,-0.53613 -0.0918,-0.15918 -0.22168,-0.28711 -0.38867,-0.38477 C 93.41113,29.59375 93.23242,29.5459 93.0459,29.5459 m 1.48828,-0.18164 h 0.27051 l 0.82617,1.92773 0.84082,-1.92773 h 0.27246 l -1.08594,2.49316 h -0.05469 l -1.06933,-2.49316 z m 3.22949,0 1.16309,2.49316 h -0.26758 l -0.3916,-0.82031 h -1.07422 l -0.39063,0.82031 h -0.27832 l 1.17969,-2.49316 h 0.05957 z m -0.03027,0.52832 -0.42871,0.9043 h 0.85254 l -0.42383,-0.9043 z m 0.10644,-1.24805 h 0.36523 l -0.5,0.52344 H 97.4707 l 0.36914,-0.52344 z m 1.61426,3.21289 v -2.49316 h 0.05371 l 1.6582,1.9082 v -1.9082 h 0.24609 v 2.49316 h -0.0566 l -1.64355,-1.88574 v 1.88574 H 99.4541 z m 3.68457,-2.55664 c 0.37793,0 0.69336,0.12598 0.94824,0.37891 0.25391,0.25195 0.38184,0.5625 0.38184,0.92969 0,0.36523 -0.12695,0.67578 -0.38184,0.92969 -0.25293,0.25391 -0.56348,0.38184 -0.92676,0.38184 -0.36914,0 -0.68262,-0.12695 -0.93652,-0.37988 -0.25488,-0.25293 -0.38086,-0.56055 -0.38086,-0.91895 0,-0.24023 0.0576,-0.46094 0.17285,-0.66602 0.11621,-0.20508 0.27441,-0.36523 0.47461,-0.48145 0.19922,-0.11621 0.417,-0.17383 0.64844,-0.17383 m 0.0117,0.24512 c -0.18359,0 -0.35742,0.04785 -0.52344,0.14258 -0.16504,0.09766 -0.29297,0.22656 -0.38574,0.38965 -0.0937,0.16309 -0.13965,0.34473 -0.13965,0.54395 0,0.2959 0.10254,0.5459 0.30859,0.75 0.2041,0.2041 0.45215,0.30566 0.74023,0.30566 0.19336,0 0.37305,-0.04688 0.53711,-0.13965 0.16406,-0.0957 0.29297,-0.22363 0.38574,-0.38672 0.0918,-0.16113 0.1377,-0.34277 0.1377,-0.54199 0,-0.19629 -0.0459,-0.37598 -0.1377,-0.53613 -0.0928,-0.15918 -0.22266,-0.28711 -0.38965,-0.38477 -0.16698,-0.09473 -0.34471,-0.14258 -0.53319,-0.14258 m 2.95899,0.05762 v -0.23926 h 1.31641 l -1.04199,2.25195 h 0.98926 v 0.24121 h -1.375 l 1.0498,-2.25391 h -0.93848 z m 3.14355,-0.23926 h 1.42871 v 0.24512 h -1.17969 v 0.78027 h 1.16992 v 0.24414 h -1.16992 v 0.97754 h 1.16992 v 0.24609 h -1.41895 v -2.49316 z m 1.66895,0 h 0.27148 l 0.82617,1.92773 0.8418,-1.92773 h 0.27051 l -1.08496,2.49316 h -0.0537 l -1.07129,-2.49316 z m 2.50292,0 h 0.49707 c 0.27734,0 0.46484,0.01172 0.5625,0.0332 0.14844,0.03418 0.26855,0.10742 0.36133,0.21875 0.0928,0.11035 0.13867,0.24805 0.13867,0.41016 0,0.13672 -0.0312,0.25488 -0.0947,0.3584 -0.0644,0.10254 -0.15625,0.17969 -0.27441,0.2334 -0.11816,0.05273 -0.2832,0.0791 -0.49121,0.08105 l 0.89648,1.1582 h -0.30859 l -0.89551,-1.1582 h -0.1416 v 1.1582 h -0.25 v -2.49316 z m 0.25,0.24414 v 0.84766 l 0.42871,0.0029 c 0.16602,0 0.28809,-0.0166 0.36816,-0.04785 0.0801,-0.03125 0.14258,-0.08105 0.1875,-0.15137 0.0439,-0.06934 0.0654,-0.14844 0.0654,-0.2334 0,-0.08398 -0.0215,-0.15918 -0.0664,-0.22754 -0.0449,-0.06836 -0.10547,-0.11719 -0.17969,-0.14746 -0.0723,-0.02832 -0.19434,-0.04297 -0.36426,-0.04297 h -0.43944 z m 2.9629,-0.30762 c 0.37695,0 0.69336,0.12598 0.94824,0.37891 0.25391,0.25195 0.38086,0.5625 0.38086,0.92969 0,0.36523 -0.12598,0.67578 -0.38086,0.92969 -0.25293,0.25391 -0.5625,0.38184 -0.92676,0.38184 -0.37012,0 -0.68164,-0.12695 -0.93652,-0.37988 -0.25391,-0.25293 -0.38086,-0.56055 -0.38086,-0.91895 0,-0.24023 0.0566,-0.46094 0.17285,-0.66602 0.11621,-0.20508 0.27441,-0.36523 0.47461,-0.48145 0.19922,-0.11621 0.41699,-0.17383 0.64844,-0.17383 m 0.0117,0.24512 c -0.18359,0 -0.3584,0.04785 -0.52344,0.14258 -0.16504,0.09766 -0.29297,0.22656 -0.38672,0.38965 -0.0928,0.16309 -0.13867,0.34473 -0.13867,0.54395 0,0.2959 0.10254,0.5459 0.30762,0.75 0.20508,0.2041 0.45313,0.30566 0.74121,0.30566 0.19434,0 0.37207,-0.04688 0.53711,-0.13965 0.16406,-0.0957 0.29199,-0.22363 0.38574,-0.38672 0.0918,-0.16113 0.13672,-0.34277 0.13672,-0.54199 0,-0.19629 -0.0449,-0.37598 -0.13672,-0.53613 -0.0937,-0.15918 -0.22266,-0.28711 -0.38965,-0.38477 -0.16796,-0.09473 -0.34472,-0.14258 -0.5332,-0.14258 m 1.81641,-0.18164 h 0.49707 c 0.28516,0 0.47656,0.01172 0.57617,0.03711 0.1416,0.03418 0.25879,0.10742 0.34961,0.2168 0.0898,0.1084 0.13477,0.24609 0.13477,0.41016 0,0.16602 -0.0439,0.30371 -0.13281,0.41113 -0.0869,0.1084 -0.20898,0.18066 -0.36328,0.21777 -0.11328,0.02734 -0.32422,0.04199 -0.63477,0.04199 h -0.17773 v 1.1582 h -0.24902 v -2.49316 z m 0.24902,0.24121 v 0.84863 l 0.42188,0.0049 c 0.1709,0 0.2959,-0.0166 0.375,-0.0459 0.0791,-0.03223 0.14063,-0.08203 0.18652,-0.15137 0.0459,-0.06934 0.0684,-0.14648 0.0684,-0.2334 0,-0.08398 -0.0225,-0.15918 -0.0684,-0.22949 -0.0459,-0.06934 -0.10547,-0.11914 -0.17969,-0.14844 -0.0732,-0.02832 -0.19434,-0.04492 -0.3623,-0.04492 h -0.44141 z m 1.48047,1.78711 0.21191,-0.12695 c 0.14844,0.27539 0.32031,0.41211 0.5166,0.41211 0.084,0 0.16211,-0.01855 0.23633,-0.05762 0.0732,-0.03906 0.12891,-0.0918 0.16797,-0.15723 0.0381,-0.06543 0.0576,-0.13477 0.0576,-0.20801 0,-0.08496 -0.0293,-0.16602 -0.085,-0.24609 -0.0791,-0.11133 -0.2207,-0.24512 -0.42773,-0.40039 -0.20703,-0.15723 -0.33691,-0.27051 -0.38867,-0.34082 -0.0879,-0.11816 -0.13184,-0.24512 -0.13184,-0.38086 0,-0.11035 0.0264,-0.20801 0.0781,-0.29688 0.0508,-0.08887 0.125,-0.16016 0.21875,-0.21094 0.0957,-0.05176 0.19727,-0.07813 0.30859,-0.07813 0.11816,0 0.22754,0.03027 0.3291,0.08789 0.10254,0.05859 0.21191,0.16504 0.3252,0.32129 l -0.20313,0.1543 c -0.0947,-0.12402 -0.1748,-0.20605 -0.24023,-0.24512 -0.0664,-0.04004 -0.1377,-0.06055 -0.21582,-0.06055 -0.10156,0 -0.18359,0.03125 -0.24707,0.0918 -0.0635,0.06152 -0.0947,0.13672 -0.0947,0.22559 0,0.05469 0.0107,0.10645 0.0322,0.1582 0.0234,0.05078 0.0645,0.10547 0.12402,0.16602 0.0332,0.03125 0.14063,0.11426 0.32227,0.24902 0.21582,0.15918 0.36426,0.30078 0.44531,0.42578 0.0801,0.125 0.12012,0.24902 0.12012,0.37402 0,0.18066 -0.0693,0.33789 -0.20605,0.47168 -0.13867,0.13281 -0.30469,0.2002 -0.50098,0.2002 -0.15234,0 -0.28906,-0.04102 -0.41211,-0.12207 -0.12305,-0.08007 -0.23731,-0.21581 -0.34083,-0.40624 m 1.98535,-2.02832 h 0.25488 v 0.93652 l 0.99609,-0.93652 h 0.33691 l -1.19824,1.11816 1.29199,1.375 h -0.33105 l -1.0957,-1.16309 v 1.16309 h -0.25488 v -2.49316 z m 2.05372,0 h 1.42969 v 0.24512 h -1.18066 v 0.78027 h 1.1709 v 0.24414 h -1.1709 v 0.97754 h 1.1709 v 0.24609 h -1.41992 v -2.49316 z m 0.84277,-0.71973 h 0.36426 l -0.5,0.52344 h -0.2334 l 0.36914,-0.52344 z m 1.01465,0.71973 h 0.25098 v 1.0459 h 1.2666 v -1.0459 h 0.25195 v 2.49316 h -0.25195 v -1.2041 h -1.2666 v 1.2041 h -0.25098 v -2.49316 z m 3.49414,-0.06348 c 0.37695,0 0.69336,0.12598 0.94824,0.37891 0.25293,0.25195 0.38086,0.5625 0.38086,0.92969 0,0.36523 -0.12695,0.67578 -0.38086,0.92969 -0.25293,0.25391 -0.56348,0.38184 -0.92969,0.38184 -0.36719,0 -0.67969,-0.12695 -0.93457,-0.37988 -0.25391,-0.25293 -0.38086,-0.56055 -0.38086,-0.91895 0,-0.24023 0.0576,-0.46094 0.17383,-0.66602 0.11523,-0.20508 0.27344,-0.36523 0.47266,-0.48145 0.20019,-0.11621 0.41699,-0.17383 0.65039,-0.17383 m 0.0117,0.24512 c -0.18457,0 -0.3584,0.04785 -0.52344,0.14258 -0.16504,0.09766 -0.29395,0.22656 -0.3877,0.38965 -0.0928,0.16309 -0.13867,0.34473 -0.13867,0.54395 0,0.2959 0.10254,0.5459 0.30762,0.75 0.20508,0.2041 0.45313,0.30566 0.74219,0.30566 0.19336,0 0.37207,-0.04688 0.53613,-0.13965 0.16406,-0.0957 0.29297,-0.22363 0.38477,-0.38672 0.0928,-0.16113 0.13867,-0.34277 0.13867,-0.54199 0,-0.19629 -0.0459,-0.37598 -0.13867,-0.53613 -0.0918,-0.15918 -0.22168,-0.28711 -0.38867,-0.38477 -0.167,-0.09473 -0.34473,-0.14258 -0.53223,-0.14258 m 3.05664,-0.18164 h 1.25 v 0.24512 h -1.00195 v 0.78027 h 1.00195 v 0.24609 h -1.00195 v 1.22168 h -0.24805 v -2.49316 z m 2.87109,-0.06348 c 0.37695,0 0.69238,0.12598 0.94727,0.37891 0.25391,0.25195 0.38086,0.5625 0.38086,0.92969 0,0.36523 -0.12598,0.67578 -0.38086,0.92969 -0.25293,0.25391 -0.56152,0.38184 -0.92676,0.38184 -0.37012,0 -0.68066,-0.12695 -0.93652,-0.37988 -0.25391,-0.25293 -0.38086,-0.56055 -0.38086,-0.91895 0,-0.24023 0.0576,-0.46094 0.17383,-0.66602 0.11523,-0.20508 0.27344,-0.36523 0.47363,-0.48145 0.20117,-0.11621 0.41699,-0.17383 0.64941,-0.17383 m 0.0117,0.24512 c -0.18457,0 -0.35938,0.04785 -0.52441,0.14258 -0.16504,0.09766 -0.29297,0.22656 -0.38574,0.38965 -0.0928,0.16309 -0.13867,0.34473 -0.13867,0.54395 0,0.2959 0.10156,0.5459 0.30762,0.75 0.2041,0.2041 0.45215,0.30566 0.74121,0.30566 0.19336,0 0.37305,-0.04688 0.53711,-0.13965 0.16504,-0.0957 0.29297,-0.22363 0.38477,-0.38672 0.0918,-0.16113 0.1377,-0.34277 0.1377,-0.54199 0,-0.19629 -0.0459,-0.37598 -0.1377,-0.53613 -0.0918,-0.15918 -0.22168,-0.28711 -0.38867,-0.38477 -0.16799,-0.09473 -0.34572,-0.14258 -0.53322,-0.14258 m 1.75,2.31152 v -2.49316 h 0.0537 l 1.6582,1.9082 v -1.9082 h 0.24609 v 2.49316 h -0.0566 l -1.64355,-1.88574 v 1.88574 h -0.25781 z m 2.56543,0 v -2.49316 h 0.51758 c 0.37402,0 0.64355,0.0293 0.81152,0.08984 0.24219,0.08496 0.43262,0.23145 0.56836,0.43945 0.13574,0.20996 0.2041,0.45898 0.2041,0.74805 0,0.25 -0.0547,0.46973 -0.16211,0.66016 -0.1084,0.19043 -0.24805,0.33008 -0.41992,0.41992 -0.17285,0.09082 -0.41406,0.13574 -0.72559,0.13574 h -0.79394 z m 0.24023,-0.23437 h 0.28809 c 0.34375,0 0.58301,-0.02246 0.7168,-0.06543 0.1875,-0.06152 0.33496,-0.1709 0.44238,-0.33008 0.10742,-0.15918 0.16113,-0.35254 0.16113,-0.58203 0,-0.24023 -0.0586,-0.44531 -0.17578,-0.61719 -0.11523,-0.1709 -0.27734,-0.28613 -0.48535,-0.35059 -0.15527,-0.04785 -0.41309,-0.07227 -0.77148,-0.07227 h -0.17578 v 2.01759 z m 2.21387,-2.25879 h 0.24902 v 1.50488 c 0,0.17871 0.003,0.29102 0.01,0.33496 0.0137,0.09766 0.041,0.17969 0.0869,0.24609 0.0459,0.0664 0.11426,0.12207 0.20898,0.16602 0.0928,0.04492 0.1875,0.06641 0.28223,0.06641 0.083,0 0.16211,-0.0166 0.2373,-0.05273 0.0762,-0.03418 0.13867,-0.08301 0.19043,-0.14551 0.0518,-0.06152 0.0889,-0.1377 0.11133,-0.22461 0.0176,-0.06445 0.0254,-0.19434 0.0254,-0.39063 v -1.50488 h 0.25 v 1.50488 c 0,0.22266 -0.0225,0.40234 -0.0654,0.54004 -0.0439,0.1377 -0.13184,0.25684 -0.26074,0.3584 -0.13086,0.10254 -0.28906,0.15332 -0.47363,0.15332 -0.20215,0 -0.37402,-0.04785 -0.51758,-0.14551 -0.14355,-0.0957 -0.24023,-0.22168 -0.28906,-0.38086 -0.0293,-0.09668 -0.0449,-0.27246 -0.0449,-0.52539"
   style="fill:#ffffff;fill-opacity:1" /><path
   inkscape:connector-curvature="0"
   id="path15"
   d="m 89.20996,33.79492 h 0.49707 c 0.28418,0 0.47559,0.0127 0.57617,0.03809 0.1416,0.0332 0.25879,0.10547 0.34863,0.21484 0.09082,0.1084 0.13574,0.24707 0.13574,0.41211 0,0.16602 -0.04395,0.30273 -0.13184,0.40918 -0.08887,0.10938 -0.20996,0.18164 -0.36523,0.21875 -0.1123,0.02734 -0.32324,0.04199 -0.63379,0.04199 h -0.17773 v 1.15918 h -0.24902 v -2.49414 z m 0.24902,0.24317 v 0.84668 l 0.42285,0.0049 c 0.16992,0 0.29395,-0.01563 0.37402,-0.04688 0.0791,-0.03125 0.1416,-0.08105 0.1875,-0.15039 0.04492,-0.06836 0.06738,-0.14746 0.06738,-0.23242 0,-0.08398 -0.02246,-0.16016 -0.06738,-0.23047 -0.0459,-0.06934 -0.10547,-0.11914 -0.17969,-0.14746 -0.07422,-0.03027 -0.19531,-0.04395 -0.36328,-0.04395 h -0.4414 z m 1.82129,-0.24317 h 0.49707 c 0.27637,0 0.46387,0.01074 0.5625,0.0332 0.14746,0.03418 0.26855,0.10742 0.36133,0.21875 0.0918,0.11035 0.13867,0.24805 0.13867,0.41113 0,0.13574 -0.03223,0.25391 -0.0957,0.35645 -0.06445,0.10352 -0.15527,0.18066 -0.27441,0.23438 -0.11816,0.05176 -0.28223,0.0791 -0.49023,0.08105 l 0.89551,1.15918 H 92.56642 L 91.67189,35.12988 H 91.5293 v 1.15918 h -0.24902 v -2.49414 z m 0.24903,0.24414 v 0.84668 l 0.42871,0.0039 c 0.16602,0 0.28906,-0.01563 0.36914,-0.04785 0.0791,-0.03125 0.14063,-0.08203 0.18555,-0.15137 0.04492,-0.06836 0.06738,-0.14648 0.06738,-0.23242 0,-0.08398 -0.02246,-0.16016 -0.06836,-0.22852 C 92.4668,34.16113 92.4082,34.1123 92.33399,34.08301 92.26075,34.05371 92.13868,34.03906 91.96778,34.03906 H 91.5293 z m 3.0332,-0.30761 c 0.37793,0 0.69238,0.12598 0.94727,0.37793 0.25391,0.25195 0.38086,0.5625 0.38086,0.93164 0,0.36426 -0.12695,0.6748 -0.38086,0.92871 -0.25293,0.25391 -0.5625,0.38086 -0.92773,0.38086 -0.36816,0 -0.68066,-0.12598 -0.93457,-0.37988 -0.25488,-0.25195 -0.38281,-0.55957 -0.38281,-0.91797 0,-0.24023 0.05957,-0.46191 0.1748,-0.66602 0.11523,-0.20508 0.27344,-0.36523 0.47363,-0.48145 0.20019,-0.11523 0.41601,-0.17382 0.64941,-0.17382 m 0.0127,0.24414 c -0.18555,0 -0.35938,0.04785 -0.52539,0.14453 -0.16504,0.09668 -0.29297,0.22559 -0.38574,0.38867 -0.09277,0.16308 -0.13965,0.34375 -0.13965,0.54395 0,0.2959 0.10254,0.5459 0.30762,0.75 0.20508,0.2041 0.45313,0.30566 0.74316,0.30566 0.19238,0 0.37207,-0.04688 0.53516,-0.14063 0.16504,-0.09277 0.29395,-0.22266 0.38574,-0.38477 0.09082,-0.16211 0.1377,-0.34375 0.1377,-0.54199 0,-0.19824 -0.04688,-0.37598 -0.1377,-0.53613 -0.0918,-0.16113 -0.22168,-0.28809 -0.38965,-0.38477 -0.16602,-0.09667 -0.34473,-0.14452 -0.53125,-0.14452 m 2.92968,-0.18067 h 0.49707 c 0.27734,0 0.46484,0.01074 0.56348,0.0332 0.14746,0.03418 0.26758,0.10742 0.36035,0.21875 0.09375,0.11035 0.13965,0.24805 0.13965,0.41113 0,0.13574 -0.03223,0.25391 -0.09668,0.35645 -0.06348,0.10352 -0.1543,0.18066 -0.27344,0.23438 -0.11914,0.05176 -0.2832,0.0791 -0.49219,0.08105 l 0.89844,1.15918 h -0.31055 l -0.89355,-1.15918 h -0.14355 v 1.15918 h -0.24902 v -2.49414 z m 0.24903,0.24414 v 0.84668 l 0.42969,0.0039 c 0.16602,0 0.28809,-0.01563 0.36816,-0.04785 0.08008,-0.03125 0.14258,-0.08203 0.1875,-0.15137 0.04395,-0.06836 0.06543,-0.14648 0.06543,-0.23242 0,-0.08398 -0.02148,-0.16016 -0.06641,-0.22852 -0.0459,-0.06836 -0.10547,-0.11719 -0.17969,-0.14648 -0.07227,-0.0293 -0.19434,-0.04395 -0.36523,-0.04395 h -0.43945 z m 1.8457,-0.24414 h 1.43066 v 0.24609 h -1.18066 v 0.7793 h 1.1709 v 0.24414 h -1.1709 v 0.97852 h 1.1709 v 0.24609 h -1.4209 v -2.49414 z m 4.2666,0.41895 -0.19336,0.18164 c -0.13867,-0.13477 -0.29199,-0.24023 -0.45801,-0.30957 -0.16504,-0.07129 -0.32617,-0.10645 -0.48242,-0.10645 -0.19629,0 -0.38086,0.04785 -0.55957,0.14453 -0.17578,0.0957 -0.3125,0.22656 -0.41113,0.38965 -0.0967,0.16504 -0.14453,0.33887 -0.14453,0.52148 0,0.18848 0.0498,0.36621 0.14941,0.53516 0.10156,0.16797 0.24023,0.30273 0.41699,0.39844 0.17871,0.09668 0.37207,0.14453 0.58301,0.14453 0.25781,0 0.47461,-0.07129 0.65137,-0.2168 0.17773,-0.14453 0.2832,-0.33301 0.31641,-0.5625 h -0.79492 v -0.24121 h 1.07422 c -0.002,0.38574 -0.11621,0.69141 -0.34375,0.91895 -0.22559,0.22559 -0.5293,0.33887 -0.91016,0.33887 -0.45996,0 -0.82422,-0.15723 -1.09473,-0.4707 -0.20703,-0.24219 -0.30859,-0.52148 -0.30859,-0.83887 0,-0.23633 0.0586,-0.45605 0.17676,-0.65918 0.11816,-0.2041 0.28223,-0.36328 0.48926,-0.47852 0.20605,-0.11426 0.44043,-0.17188 0.7002,-0.17188 0.21094,0 0.41113,0.03906 0.59766,0.11523 0.18653,0.07617 0.36912,0.19825 0.54588,0.3672 m 0.58594,-0.41895 h 0.24902 v 2.49414 h -0.24902 v -2.49414 z m 2.00879,-0.06347 c 0.37695,0 0.69336,0.12598 0.94824,0.37793 0.25391,0.25195 0.38086,0.5625 0.38086,0.93164 0,0.36426 -0.12598,0.6748 -0.38086,0.92871 -0.25293,0.25391 -0.56348,0.38086 -0.92676,0.38086 -0.37012,0 -0.68164,-0.12598 -0.93652,-0.37988 -0.25488,-0.25195 -0.38086,-0.55957 -0.38086,-0.91797 0,-0.24023 0.0566,-0.46191 0.17285,-0.66602 0.11621,-0.20508 0.27344,-0.36523 0.47461,-0.48145 0.19922,-0.11523 0.41699,-0.17382 0.64844,-0.17382 m 0.0117,0.24414 c -0.18359,0 -0.3584,0.04785 -0.52344,0.14453 -0.16504,0.09668 -0.29297,0.22559 -0.38672,0.38867 -0.0928,0.16309 -0.13965,0.34375 -0.13965,0.54395 0,0.2959 0.10352,0.5459 0.30859,0.75 0.2041,0.2041 0.45215,0.30566 0.74121,0.30566 0.19336,0 0.37207,-0.04688 0.53613,-0.14063 0.16504,-0.09277 0.29395,-0.22266 0.38672,-0.38477 0.0918,-0.16211 0.1377,-0.34375 0.1377,-0.54199 0,-0.19824 -0.0459,-0.37598 -0.1377,-0.53613 -0.0928,-0.16113 -0.22266,-0.28809 -0.38965,-0.38477 -0.16796,-0.09667 -0.34472,-0.14452 -0.53319,-0.14452 m 1.81933,2.31347 v -2.49414 h 0.0547 l 1.65723,1.9082 v -1.9082 h 0.2461 v 2.49414 h -0.0557 l -1.64453,-1.88672 v 1.88672 h -0.25782 z m 3.58496,-2.49414 1.16309,2.49414 h -0.26758 l -0.3916,-0.82129 h -1.0752 l -0.38965,0.82129 h -0.27734 l 1.17871,-2.49414 h 0.0596 z m -0.0303,0.52832 -0.42871,0.9043 h 0.85352 l -0.42481,-0.9043 z m 0.10742,-1.24707 h 0.36426 l -0.5,0.52148 h -0.23438 l 0.37012,-0.52148 z m 1.47266,0.71875 h 0.25098 v 2.25293 h 0.95703 v 0.24121 h -1.20801 v -2.49414 z m 1.60547,2.49414 v -2.49414 h 0.0537 l 1.6582,1.9082 v -1.9082 h 0.24609 v 2.49414 h -0.0566 l -1.64355,-1.88672 v 1.88672 h -0.25781 z m 2.53125,-2.49414 h 0.25 v 2.49414 h -0.25 v -2.49414 z m 0.23828,-0.71875 h 0.36426 l -0.49902,0.52148 h -0.23438 l 0.36914,-0.52148 z m 1.69531,0.71875 h 0.49609 c 0.27734,0 0.46484,0.01074 0.5625,0.0332 0.14844,0.03418 0.26855,0.10742 0.36133,0.21875 0.0928,0.11035 0.13867,0.24805 0.13867,0.41113 0,0.13574 -0.0312,0.25391 -0.0947,0.35645 -0.0645,0.10352 -0.15527,0.18066 -0.27539,0.23438 -0.11719,0.05176 -0.28223,0.0791 -0.49023,0.08105 l 0.89648,1.15918 h -0.30859 l -0.89551,-1.15918 h -0.1416 v 1.15918 h -0.24902 v -2.49414 z m 0.24902,0.24414 v 0.84668 l 0.42871,0.0039 c 0.16602,0 0.28809,-0.01563 0.36816,-0.04785 0.0801,-0.03125 0.14258,-0.08203 0.1875,-0.15137 0.044,-0.06836 0.0654,-0.14648 0.0654,-0.23242 0,-0.08398 -0.0215,-0.16016 -0.0664,-0.22852 -0.0459,-0.06836 -0.10547,-0.11719 -0.17871,-0.14648 -0.0742,-0.0293 -0.19531,-0.04395 -0.36523,-0.04395 h -0.43945 z m 2.89356,-0.30761 c 0.37695,0 0.69336,0.12598 0.94824,0.37793 0.25391,0.25195 0.38086,0.5625 0.38086,0.93164 0,0.36426 -0.12695,0.6748 -0.38086,0.92871 -0.25293,0.25391 -0.5625,0.38086 -0.92773,0.38086 -0.36914,0 -0.68066,-0.12598 -0.93555,-0.37988 -0.25488,-0.25195 -0.38184,-0.55957 -0.38184,-0.91797 0,-0.24023 0.0586,-0.46191 0.17383,-0.66602 0.11621,-0.20508 0.27344,-0.36523 0.47461,-0.48145 0.2002,-0.11523 0.41602,-0.17382 0.64844,-0.17382 m 0.0127,0.24414 c -0.18457,0 -0.35938,0.04785 -0.52441,0.14453 -0.16503,0.09668 -0.29395,0.22559 -0.38672,0.38867 -0.0918,0.16309 -0.13965,0.34375 -0.13965,0.54395 0,0.2959 0.10352,0.5459 0.30859,0.75 0.20507,0.2041 0.45313,0.30566 0.74219,0.30566 0.19238,0 0.37207,-0.04688 0.53613,-0.14063 0.16504,-0.09277 0.29395,-0.22266 0.38477,-0.38477 0.0918,-0.16211 0.13867,-0.34375 0.13867,-0.54199 0,-0.19824 -0.0469,-0.37598 -0.13867,-0.53613 -0.0908,-0.16113 -0.22168,-0.28809 -0.38965,-0.38477 -0.16699,-0.09667 -0.34375,-0.14452 -0.53125,-0.14452 m 1.65039,0.05957 v -0.24023 h 1.31641 l -1.04297,2.25195 h 0.99023 v 0.24219 h -1.375 l 1.0498,-2.25391 h -0.93847 z m 1.57325,-0.24024 h 0.27246 l 0.8252,1.92676 0.84082,-1.92676 h 0.27051 l -1.08398,2.49414 h -0.0537 l -1.0713,-2.49414 z m 3.6084,-0.06347 c 0.37793,0 0.69238,0.12598 0.94727,0.37793 0.25391,0.25195 0.38281,0.5625 0.38281,0.93164 0,0.36426 -0.12891,0.6748 -0.38281,0.92871 -0.25293,0.25391 -0.5625,0.38086 -0.92773,0.38086 -0.36914,0 -0.68066,-0.12598 -0.93457,-0.37988 -0.25488,-0.25195 -0.38086,-0.55957 -0.38086,-0.91797 0,-0.24023 0.0566,-0.46191 0.17285,-0.66602 0.11523,-0.20508 0.27246,-0.36523 0.47363,-0.48145 0.20019,-0.11523 0.41601,-0.17382 0.64941,-0.17382 m 0.0117,0.24414 c -0.18555,0 -0.3584,0.04785 -0.52441,0.14453 -0.16504,0.09668 -0.29395,0.22559 -0.38672,0.38867 -0.0918,0.16309 -0.13867,0.34375 -0.13867,0.54395 0,0.2959 0.10254,0.5459 0.30762,0.75 0.20508,0.2041 0.45313,0.30566 0.74219,0.30566 0.19336,0 0.37305,-0.04688 0.53613,-0.14063 0.16504,-0.09277 0.29395,-0.22266 0.38574,-0.38477 0.0918,-0.16211 0.1377,-0.34375 0.1377,-0.54199 0,-0.19824 -0.0459,-0.37598 -0.1377,-0.53613 -0.0918,-0.16113 -0.22266,-0.28809 -0.38867,-0.38477 -0.167,-0.09667 -0.34571,-0.14452 -0.53321,-0.14452 m 2.42481,-0.18067 h 0.25098 v 1.68359 c 0,0.25781 -0.0195,0.43848 -0.0605,0.54004 -0.0391,0.10059 -0.10742,0.18066 -0.2002,0.24219 -0.0947,0.05957 -0.20703,0.08984 -0.34082,0.08984 -0.10156,0 -0.2002,-0.01855 -0.29785,-0.05762 -0.0976,-0.03907 -0.20605,-0.1084 -0.3252,-0.20605 l 0.13281,-0.19824 c 0.12988,0.09082 0.23828,0.15625 0.32324,0.19336 0.0566,0.02441 0.11133,0.03613 0.16699,0.03613 0.0703,0 0.13574,-0.02051 0.19336,-0.06348 0.0586,-0.04297 0.0996,-0.10059 0.12207,-0.1709 0.0234,-0.07129 0.0352,-0.20898 0.0352,-0.41406"
   style="fill:#ffffff;fill-opacity:1" /><path
   inkscape:connector-curvature="0"
   id="path17"
   d="m 200.87695,13.9834 h 3.00293 c 1.7207,0 2.88086,0.08008 3.48242,0.22656 1.81445,0.44531 2.93066,2.12598 2.93066,3.97754 0,1.92773 -1.13184,3.38574 -3.00391,3.83789 -0.68066,0.16504 -1.95801,0.24512 -3.82813,0.24512 h -1.07715 v 6.82031 h -1.50684 V 13.9834 z m 1.50684,1.46484 v 5.3457 l 2.55273,0.03125 c 1.03125,0.0127 1.78223,-0.0957 2.2627,-0.2832 0.95703,-0.37305 1.53809,-1.33789 1.53809,-2.35449 0,-0.97363 -0.57227,-2.1084 -1.49316,-2.46973 -0.44824,-0.17676 -1.17871,-0.26953 -2.19629,-0.26953"
   style="fill:#ffffff;fill-opacity:1" /><path
   inkscape:connector-curvature="0"
   id="path19"
   d="m 196.69727,21.4043 c 9.8e-4,-0.04785 -9.8e-4,-0.12207 -0.005,-0.16406 -0.0244,-0.23438 -0.30273,-0.43066 -0.64453,-0.72363 0.0322,-0.43066 0.50098,-0.74512 0.50098,-1.09863 -0.25098,-0.17383 -0.7041,-0.39063 -1.13965,-0.38574 -0.52734,0.0068 -0.9248,0.39746 -1.01855,0.88574 -0.25391,0 -0.34668,-0.30176 -0.55469,-0.51367 -0.22266,-0.22754 -0.56055,-0.37012 -0.80176,-0.50781 -0.22363,-0.12793 -0.57617,0.12207 -0.80273,0.19727 -0.20215,-0.3125 -0.35059,-0.67871 -0.66406,-0.89746 -0.33887,-0.2373 -0.66895,-0.49707 -1.08594,-0.63086 -0.39258,-0.12305 -0.86719,-0.12988 -1.30762,-0.09277 -0.0772,-0.57813 -0.41699,-0.8916 -0.77539,-0.84082 -0.0625,0.0078 -0.15039,0.02832 -0.2041,0.05078 v 4.72168"
   style="fill:#ffffff;fill-opacity:1" /><path
   inkscape:connector-curvature="0"
   id="path21"
   d="m 194.89844,31.60059 c 0.0908,-0.09277 0.11328,-0.55469 0.50879,-0.6084 0.0459,0 0.23828,-0.42773 0.29883,-0.42773 0.3916,-0.4873 0.27344,-0.19043 0.52051,-0.71387 0.18066,-0.38184 -0.26074,-0.41895 0.0713,-0.74805 0.2832,-0.2793 0.52441,0.12695 0.96289,0.19824 0.28027,0.0459 0.49512,-0.17871 0.78223,-0.17969 0.37012,0 0.34668,0.40137 0.78516,0.27246 0.30176,-0.08789 0.60156,-0.45215 0.9502,-0.58594 0.30859,-0.11816 0.62012,-0.04688 0.6709,-0.19141 0.25195,-0.71289 -0.45703,-1.49902 -0.56348,-2.20508 -0.11133,-0.72949 0.0234,-1.30664 -0.27832,-1.55273 -0.31152,-0.25391 -0.68359,-0.02246 -1.75098,-0.4082 -0.0918,-0.50781 -0.20801,-0.70117 -0.5,-1.13184 -0.0459,-0.13867 -0.28418,-0.34766 -0.4082,-0.37793 -0.22949,-0.22949 -0.3877,-0.6084 -0.60352,-0.82324 0.12988,-0.13965 0.21289,-0.29492 0.2666,-0.41016 h -8.41699 v 7.22656 c 0.12891,0.28125 0.34082,0.52539 0.87695,0.26953 0.60938,-0.29199 0.81348,-0.1748 1.42285,-0.1748 0.5791,-0.08691 0.46484,0.31934 0.66699,0.40625 0.14551,0.05859 0.60938,0.29004 0.72656,0.29004 0.43457,0 0.11426,-0.34766 0.40527,-0.34766 0.43555,0 0.46484,0.52148 0.60938,0.84082 0.14551,0.29102 0.75977,0.14648 0.73145,0.52246 -0.0312,0.41992 0.003,0.46777 0.56934,0.70313 0.16014,0.06837 0.46288,0.39161 0.6953,0.15724"
   style="fill:#ffffff;fill-opacity:1" /><path
   inkscape:connector-curvature="0"
   id="path23"
   d="m 166.83398,13.9834 h 3 c 1.67383,0 2.80859,0.06934 3.40234,0.20605 0.89453,0.20605 1.62402,0.68066 2.18164,1.35254 0.56055,0.67383 0.83887,1.61426 0.83887,2.59668 0,0.81934 -0.18945,1.42871 -0.57617,2.0498 -0.99414,1.59863 -2.8916,2.07227 -4.625,2.08105 l 5.41895,6.82129 h -1.86719 l -5.40625,-6.82129 h -0.85938 v 6.82129 h -1.50781 V 13.9834 z m 1.50782,1.47558 v 5.3457 l 2.59082,0.02051 c 1.2168,0.01074 2.625,-0.25391 3.35352,-1.38867 0.26953,-0.41895 0.4043,-0.78027 0.4043,-1.29785 0,-0.50586 -0.13477,-1.07617 -0.40918,-1.48926 -0.27148,-0.41309 -0.63184,-0.74805 -1.07617,-0.9248 -0.44336,-0.17676 -1.18164,-0.26563 -2.21387,-0.26563"
   style="fill:#ffffff;fill-opacity:1" /><path
   inkscape:connector-curvature="0"
   id="path25"
   d="m 187.92188,11.7998 c 2.80957,0 5.16406,0.94043 7.06055,2.81543 1.89258,1.87891 2.84082,4.18945 2.84082,6.93555 0,0.60938 -0.0479,1.19629 -0.14258,1.76465 -0.0596,-0.09277 -0.10645,-0.19141 -0.17383,-0.27637 -0.0928,-0.11719 -0.25684,-0.27539 -0.39941,-0.3291 -0.16016,-0.17871 -0.2666,-0.40234 -0.40918,-0.59277 0.0928,-0.13477 0.17188,-0.25684 0.21875,-0.41309 0.083,-0.2793 0.0977,-0.52246 -0.0557,-0.77734 -0.12793,-0.21387 -0.32227,-0.35156 -0.5127,-0.51172 0.0713,-0.19238 0.22168,-0.35938 0.3252,-0.53418 0.12402,-0.20801 0.14063,-0.36914 0.15918,-0.60059 -0.22559,-0.15039 -0.43555,-0.28125 -0.68848,-0.37695 -0.22949,-0.08691 -0.46191,-0.13867 -0.70898,-0.14258 -0.15039,-0.41895 -0.33691,-0.82031 -0.55957,-1.20996 -0.68652,-1.18945 -1.65234,-2.14258 -2.89746,-2.85742 -1.24707,-0.71582 -2.56934,-1.07422 -3.96582,-1.07422 -1.375,0 -2.67285,0.3584 -3.90625,1.07422 -1.22754,0.71484 -2.18457,1.68066 -2.87891,2.8916 -0.68945,1.21094 -1.03418,2.56445 -1.03418,4.05176 0,2.20703 0.7627,4.06934 2.29297,5.5918 1.52539,1.51758 3.37012,2.27539 5.52637,2.27539 0.1123,0 0.22363,-0.002 0.33301,-0.0059 0.2959,0.18066 0.64355,0.05664 0.92676,-0.08789 0.22559,-0.03418 0.44824,-0.07813 0.66797,-0.13086 0.24219,0.01074 0.47949,0.02539 0.72363,0.01172 0.0723,0.01367 0.0723,0.01855 0.10938,0.08301 0.0518,0.10059 0.0898,0.18652 0.1543,0.23438 0.19629,0.14648 0.61133,0.29004 0.83496,0.37207 0.10547,0.01758 0.22949,0.02637 0.34082,-0.0059 0.1377,-0.03809 0.25488,-0.13379 0.28906,-0.28223 0.125,0.1377 0.1582,0.375 0.22559,0.5459 -1.3584,0.71484 -2.87305,1.07227 -4.54492,1.07227 -2.75,0 -5.07422,-0.94043 -6.9707,-2.82715 -1.89258,-1.88574 -2.84082,-4.16895 -2.84082,-6.84668 0,-1.7832 0.43164,-3.43945 1.29297,-4.96191 0.8623,-1.52539 2.03906,-2.71484 3.53125,-3.58203 1.49118,-0.86134 3.10251,-1.29299 4.83591,-1.29299"
   style="fill:#ffffff;fill-opacity:1" /><path
   inkscape:connector-curvature="0"
   id="path27"
   d="m 177.48242,21.70703 c 0.0518,0.09375 -0.24316,0.50195 0.41699,0.50195 0.0322,0 0.0703,0.0059 0.11035,0.01563 -0.009,-0.16113 -0.0166,-0.35352 -0.0195,-0.51758"
   style="fill:#ffffff;fill-opacity:1" /><path
   inkscape:connector-curvature="0"
   id="path29"
   d="m 180.45703,21.70703 c 0.009,0.73438 0.11426,1.4707 0.30664,2.1377 0.14648,-0.01172 0.27539,-0.04492 0.32813,-0.09766 0.11523,-0.11719 0.58105,0 0.7832,0 0.23242,0 0.49316,-0.29102 0.49316,0.14453 0,0.20313 0.37695,0.20313 0.52246,0.20313 0.23242,0 0.29004,-0.08691 0.40625,-0.20313 0.11523,-0.11523 0.8125,0.1748 0.89941,0.20313 0.31934,0.14551 -0.34766,1.19043 -0.11621,1.42188 0.0879,0.08789 0.49316,0.20313 0.58105,0 0.0293,-0.05762 -0.0586,-0.34863 0.0576,-0.34863 0.2041,0 0.1748,0.05957 0.1748,0.23242 0,0.43555 0.8418,1.6543 1.30566,1.6543 0.52246,0 -0.2041,1.21973 0.49316,1.21973 0.17383,0 0.20313,-0.23242 0.43555,0 0.1582,0.1582 0.54785,0.12207 0.76367,0.16895 v -6.73633"
   style="fill:#ffffff;fill-opacity:1" /><path
   inkscape:connector-curvature="0"
   id="path31"
   d="m 184.68945,12.03809 c 0.005,-0.0166 0.007,-0.03613 0.006,-0.05273 -0.01,-0.25684 -0.0625,-0.6543 -0.0772,-0.91992 -0.58691,-0.50879 -0.72852,-1.0498 -1.51563,-1.0498 -0.58496,0.29492 -0.67969,1.08008 -0.80273,1.80566 -0.6416,-0.15918 -1.44922,-0.50098 -2.1582,-0.14844 -0.008,0.41602 -0.0859,0.85645 -0.0859,1.32422 0,0.58203 -0.75684,-0.1748 -0.90234,0.14551 -0.0596,0.14551 -0.2041,0.7002 -0.4082,0.7002 -0.87402,0 -0.52441,0.84375 -1.16504,0.84375 -0.37793,0 0,2.15625 -0.2041,2.35938 -0.2041,0.20313 -0.69922,0.55371 -0.69922,0.96191 0,0.11523 -0.0586,0.49414 -0.0586,0.64063 0,0.14551 0.32129,0.52441 0.32129,0.69922 0.14453,0.87402 -0.4668,0.96094 -0.4668,1.66016 0,0.16016 0.0186,0.31641 0.0557,0.41602 h 1.37695 c 0.0733,-4.3848 2.82911,-8.06448 6.78418,-9.38577"
   style="fill:#ffffff;fill-opacity:1" /><path
   inkscape:connector-curvature="0"
   id="path33"
   d="m 187.8916,17.06738 c -0.0879,0.18555 -0.17188,0.4248 -0.19629,0.70605 -0.3457,0.04688 -0.7959,0.04004 -1.2334,0.19922 -0.43555,0.16016 -0.62109,0.36914 -0.91309,0.36914 -0.41602,-0.53809 -0.44434,-0.47754 -0.52148,-0.67773 -0.0312,-0.06152 -0.10645,-0.22754 -0.12109,-0.27441 -0.0459,-0.77441 -0.043,-1.30957 -0.1084,-1.55762 -0.0713,-0.27734 -0.74609,-0.17383 -1.37598,-0.34766 -1.74023,1.35449 -2.87988,3.5 -2.96094,5.91992 h 7.43066"
   style="fill:#ffffff;fill-opacity:1" /><path
   inkscape:connector-curvature="0"
   id="path35"
   d="m 181.82617,29.48535 -8.4834,8.92188 c -0.81152,-0.2832 -1.4502,-0.93359 -1.68359,-1.68457 l 8.87598,-8.44043 c 0.12012,0.13086 0.24316,0.25977 0.37012,0.38574 0.15723,0.15723 0.31738,0.30566 0.47852,0.44922 l -8.21289,8.43555 c -0.0469,0.03906 0.0742,0.14941 0.11523,0.11133 l 8.21875,-8.44141 c 0.10644,0.08984 0.21288,0.17773 0.32128,0.26269"
   style="fill:#ffffff;fill-opacity:1" /><path
   inkscape:connector-curvature="0"
   id="path37"
   d="M 11.24316,36.6084 H 53.79394 V 7.7041 H 11.24316 v 28.9043 z m 41.73243,-0.83399 0,0 H 12.06055 V 8.49707 h 40.91504"
   style="fill:#ffffff;fill-opacity:1" /><polyline
   id="polyline39"
   points="31.64648,14.44043 32.50977,13.81055 33.37305,14.44043 33.04492,13.42188 33.92188,12.79102    32.84082,12.79102 32.50977,11.76074 32.17871,12.79199 31.09863,12.79102 31.97461,13.42188  "
   style="fill:#ffffff;fill-opacity:1" /><polyline
   id="polyline41"
   points="27.17871,15.64063 28.04102,15.01074 28.9043,15.64063 28.57715,14.62207 29.45313,13.99121    28.37207,13.99121 28.04102,12.95996 27.70996,13.99316 26.62988,13.99121 27.50586,14.62207  "
   style="fill:#ffffff;fill-opacity:1" /><polyline
   id="polyline43"
   points="24.77246,16.23535 24.44141,17.26855 23.36133,17.26855 24.23828,17.89844 23.91016,18.91797    24.77246,18.28809 25.63574,18.91797 25.30664,17.89844 26.18359,17.26855 25.10352,17.26855  "
   style="fill:#ffffff;fill-opacity:1" /><polyline
   id="polyline45"
   points="23.57324,22.75 24.43652,23.37988 24.1084,22.36035 24.98438,21.73047 23.9043,21.73047    23.57324,20.69727 23.24219,21.73242 22.16211,21.73047 23.03809,22.36035 22.70898,23.37988  "
   style="fill:#ffffff;fill-opacity:1" /><polyline
   id="polyline47"
   points="25.10352,26.20605 24.77246,25.17383 24.44141,26.20703 23.36133,26.20605 24.23828,26.83594    23.90918,27.85547 24.77246,27.22461 25.63574,27.85547 25.30664,26.83594 26.18359,26.20605  "
   style="fill:#ffffff;fill-opacity:1" /><polyline
   id="polyline49"
   points="28.37891,29.48145 28.04785,28.4502 27.71777,29.48242 26.63672,29.48145 27.5127,30.11133    27.18457,31.13086 28.04883,30.50098 28.91113,31.13086 28.58301,30.11133 29.45996,29.48145  "
   style="fill:#ffffff;fill-opacity:1" /><polyline
   id="polyline51"
   points="32.8418,30.66797 32.50977,29.63672 32.18066,30.66895 31.09961,30.66797 31.97559,31.29883    31.64746,32.31738 32.51172,31.6875 33.37305,32.31738 33.04492,31.29883 33.92188,30.66797  "
   style="fill:#ffffff;fill-opacity:1" /><polyline
   id="polyline53"
   points="37.30371,29.48145 36.97363,28.4502 36.6416,29.48242 35.56152,29.48145 36.4375,30.11133    36.10938,31.13086 36.97363,30.50098 37.83594,31.13086 37.50781,30.11133 38.38477,29.48145  "
   style="fill:#ffffff;fill-opacity:1" /><polyline
   id="polyline55"
   points="40.5791,26.20605 40.24805,25.17383 39.91699,26.20703 38.83789,26.20605 39.71387,26.83594    39.38574,27.85547 40.24805,27.22461 41.11133,27.85547 40.7832,26.83594 41.65918,26.20605  "
   style="fill:#ffffff;fill-opacity:1" /><polyline
   id="polyline57"
   points="42.84668,21.71777 41.76563,21.71777 41.43457,20.68652 41.10449,21.71875 40.02344,21.71777    40.90039,22.34863 40.57129,23.36719 41.43457,22.73633 42.29785,23.36719 41.96973,22.34863  "
   style="fill:#ffffff;fill-opacity:1" /><polyline
   id="polyline59"
   points="39.38477,18.9043 40.24805,18.27344 41.1123,18.9043 40.7832,17.88477 41.66016,17.25586    40.5791,17.25586 40.24805,16.22363 39.91699,17.25684 38.83691,17.25586 39.71387,17.88477  "
   style="fill:#ffffff;fill-opacity:1" /><polyline
   id="polyline61"
   points="36.98535,12.95996 36.65527,13.99414 35.57422,13.99121 36.45117,14.62305 36.12207,15.64258    36.98633,15.01074 37.84863,15.64258 37.52051,14.62305 38.39746,13.99121 37.31543,13.99121  "
   style="fill:#ffffff;fill-opacity:1" /><path
   inkscape:connector-curvature="0"
   id="path63"
   d="m 82.48633,17.88965 h 4.35352 v 1.12109 h -2.72559 v 0.83691 h 2.52832 v 1.07129 h -2.52832 v 1.03613 h 2.80469 v 1.19141 h -4.43262 v -5.25683 z m 4.77734,1.44726 h 1.51953 l 0.74024,2.41309 0.7627,-2.41309 h 1.47363 l -1.61719,3.80957 h -1.29395 l -1.58496,-3.80957 z m 4.9336,0 h 1.36621 v 0.62305 c 0.13281,-0.26855 0.26855,-0.45508 0.40918,-0.55566 0.13867,-0.10156 0.31055,-0.15332 0.5166,-0.15332 0.21582,0 0.45117,0.06738 0.70605,0.2002 l -0.45117,1.04102 c -0.17188,-0.07227 -0.30859,-0.10742 -0.40918,-0.10742 -0.19043,0 -0.33887,0.0791 -0.44434,0.23535 -0.15137,0.22363 -0.22656,0.63965 -0.22656,1.24902 v 1.27734 h -1.4668 v -3.80958 z m 3.18554,1.91504 c 0,-0.58008 0.19629,-1.05957 0.58789,-1.43555 0.39258,-0.37695 0.92188,-0.56543 1.58887,-0.56543 0.7627,0 1.33984,0.22168 1.72852,0.66309 0.31348,0.35742 0.46973,0.7959 0.46973,1.31738 0,0.58496 -0.19434,1.06445 -0.58301,1.43945 -0.3877,0.37305 -0.9248,0.56152 -1.61133,0.56152 -0.6123,0 -1.10742,-0.15723 -1.48535,-0.4668 -0.46387,-0.38475 -0.69532,-0.88963 -0.69532,-1.51366 m 1.46387,-0.0039 c 0,0.33984 0.06738,0.59082 0.20605,0.75293 0.1377,0.16309 0.30957,0.24414 0.51758,0.24414 0.21094,0 0.38379,-0.08008 0.51758,-0.24023 0.13672,-0.15918 0.2041,-0.41699 0.2041,-0.77051 0,-0.33008 -0.06836,-0.57617 -0.20508,-0.7373 -0.13574,-0.16113 -0.30469,-0.24121 -0.50586,-0.24121 -0.21289,0 -0.38867,0.08105 -0.52637,0.24414 -0.13964,0.16405 -0.208,0.41405 -0.208,0.74804 m 3.62207,3.34765 v -5.25879 h 1.36523 v 0.56348 c 0.18945,-0.2373 0.3623,-0.39746 0.52051,-0.48047 0.21289,-0.1123 0.44824,-0.16895 0.70703,-0.16895 0.50879,0 0.90234,0.19629 1.18164,0.58496 0.27832,0.38965 0.41797,0.87109 0.41797,1.44629 0,0.63184 -0.15234,1.11523 -0.45605,1.4502 -0.30273,0.33301 -0.6875,0.5 -1.15039,0.5 -0.22559,0 -0.43066,-0.03906 -0.61523,-0.11523 -0.18555,-0.07617 -0.35156,-0.19043 -0.49707,-0.34082 v 1.81934 h -1.47364 z m 1.46387,-3.34375 c 0,0.30176 0.0615,0.52539 0.18945,0.6709 0.12598,0.14551 0.28613,0.21973 0.47949,0.21973 0.1709,0 0.31152,-0.07031 0.42773,-0.21094 0.11523,-0.13965 0.17188,-0.37695 0.17188,-0.71094 0,-0.30859 -0.0596,-0.53516 -0.17969,-0.67969 -0.11914,-0.14551 -0.26563,-0.21777 -0.4375,-0.21777 -0.18652,0 -0.3418,0.07422 -0.46582,0.21875 -0.125,0.14649 -0.18554,0.38281 -0.18554,0.70996 m 3.16894,0.83887 1.44922,-0.13574 c 0.0596,0.17188 0.14355,0.2959 0.25,0.36914 0.1084,0.0752 0.25195,0.1123 0.43262,0.1123 0.19629,0 0.34766,-0.04199 0.45508,-0.12598 0.083,-0.0625 0.12402,-0.14063 0.12402,-0.2334 0,-0.10449 -0.0547,-0.18555 -0.16309,-0.24316 -0.0801,-0.04102 -0.28906,-0.09082 -0.62793,-0.15039 -0.50684,-0.08984 -0.85938,-0.16992 -1.05762,-0.24609 -0.19629,-0.07617 -0.3623,-0.20313 -0.49805,-0.38281 -0.13574,-0.17871 -0.20215,-0.38281 -0.20215,-0.6123 0,-0.25195 0.0732,-0.46777 0.21875,-0.64941 0.14551,-0.18164 0.3457,-0.31738 0.60156,-0.40723 0.25586,-0.08985 0.59961,-0.13477 1.03027,-0.13477 0.4541,0 0.78906,0.03516 1.00586,0.10449 0.2168,0.06836 0.39648,0.17676 0.54102,0.32324 0.14551,0.14551 0.26465,0.3418 0.36133,0.59082 l -1.38379,0.13672 c -0.0371,-0.12207 -0.0967,-0.21191 -0.18066,-0.26855 -0.11426,-0.07715 -0.25391,-0.11523 -0.41602,-0.11523 -0.16504,0 -0.28613,0.0293 -0.36035,0.08789 -0.0762,0.05859 -0.1123,0.12988 -0.1123,0.21289 0,0.09375 0.0479,0.16406 0.14258,0.21191 0.0967,0.04785 0.30469,0.08984 0.625,0.12891 0.48535,0.05566 0.84668,0.13086 1.08203,0.23047 0.23828,0.09668 0.41895,0.23633 0.54297,0.41895 0.12598,0.18066 0.18945,0.38086 0.18945,0.59863 0,0.21973 -0.0674,0.43555 -0.2002,0.64258 -0.13184,0.20898 -0.34082,0.37402 -0.62695,0.49512 -0.28613,0.12402 -0.6748,0.18555 -1.16699,0.18555 -0.69629,0 -1.19238,-0.09863 -1.4873,-0.29688 -0.29394,-0.19923 -0.4834,-0.48146 -0.56836,-0.84767 m 4.74512,-4.20117 h 1.49121 v 2.70996 l 1.0918,-1.2627 h 1.79688 l -1.36719,1.33496 1.44531,2.47461 h -1.64648 l -0.77051,-1.52832 -0.5498,0.53809 v 0.99023 h -1.49121 v -5.25683 z m 6.22949,2.68066 -1.39453,-0.14746 c 0.0527,-0.24219 0.12891,-0.43457 0.22754,-0.57422 0.0996,-0.14063 0.24121,-0.26074 0.42871,-0.36426 0.13379,-0.07422 0.31836,-0.13184 0.55176,-0.17188 0.2334,-0.04102 0.4873,-0.06152 0.76074,-0.06152 0.43652,0 0.78906,0.02441 1.05371,0.07324 0.26465,0.04883 0.4873,0.15234 0.66309,0.30664 0.125,0.1084 0.22266,0.26074 0.2959,0.45703 0.0713,0.19824 0.10645,0.38574 0.10645,0.56641 v 1.68066 c 0,0.17969 0.0117,0.32031 0.0332,0.4209 0.0234,0.10254 0.0732,0.23242 0.14941,0.39063 h -1.37012 c -0.0537,-0.09863 -0.0898,-0.17285 -0.10645,-0.22559 -0.0185,-0.0498 -0.0342,-0.13184 -0.0508,-0.24023 -0.19043,0.18359 -0.38184,0.31445 -0.56934,0.39258 -0.25879,0.10645 -0.55957,0.15918 -0.90137,0.15918 -0.4541,0 -0.79883,-0.10645 -1.03516,-0.31641 -0.23438,-0.20996 -0.35254,-0.46875 -0.35254,-0.77734 0,-0.29004 0.084,-0.52734 0.25488,-0.71387 0.16992,-0.1875 0.48145,-0.3252 0.93848,-0.41699 0.54883,-0.10938 0.90332,-0.18652 1.06641,-0.23047 0.16211,-0.04395 0.33398,-0.10352 0.51465,-0.17285 0,-0.18164 -0.0352,-0.30664 -0.10938,-0.37793 -0.0752,-0.07129 -0.2041,-0.10742 -0.39258,-0.10742 -0.2373,0 -0.41699,0.03906 -0.53613,0.11523 -0.0937,0.0586 -0.16991,0.17188 -0.22655,0.33594 m 1.26465,0.7666 c -0.2002,0.07324 -0.40918,0.13672 -0.62598,0.19141 -0.29688,0.0791 -0.48438,0.15723 -0.5625,0.2334 -0.083,0.0791 -0.12207,0.16895 -0.12207,0.26953 0,0.11426 0.0391,0.20801 0.12012,0.28125 0.0801,0.07227 0.19727,0.1084 0.35254,0.1084 0.16309,0 0.31348,-0.03906 0.4541,-0.11719 0.14063,-0.0791 0.23926,-0.17676 0.29785,-0.28809 0.0586,-0.11523 0.0859,-0.2627 0.0859,-0.44336 v -0.23535 z m -0.62207,-3.53808 h 1.25488 l -1.1582,1.07227 h -0.69922 l 0.60254,-1.07227 z m 9.38867,5.34765 h -1.36426 v -0.61816 c -0.20215,0.25391 -0.40625,0.43457 -0.61328,0.54199 -0.20703,0.1084 -0.46191,0.16211 -0.76367,0.16211 -0.40137,0 -0.71484,-0.12012 -0.94531,-0.36133 -0.22656,-0.23926 -0.34082,-0.60938 -0.34082,-1.10938 v -2.4248 h 1.46582 v 2.09473 c 0,0.23926 0.0449,0.40918 0.13379,0.50977 0.0898,0.09961 0.21289,0.14941 0.37305,0.14941 0.1748,0 0.31641,-0.06543 0.42871,-0.19922 0.11035,-0.13574 0.16602,-0.37402 0.16602,-0.72168 v -1.83301 h 1.45996 v 3.80957 z m 0.88477,-3.80957 h 1.36133 v 0.62012 c 0.20313,-0.25391 0.40918,-0.43359 0.61523,-0.54199 0.20898,-0.10938 0.46289,-0.16406 0.76172,-0.16406 0.40332,0 0.71973,0.12012 0.94727,0.36133 0.22852,0.24023 0.34277,0.61035 0.34277,1.1123 v 2.42188 h -1.46582 v -2.09473 c 0,-0.23828 -0.0459,-0.4082 -0.13379,-0.50781 -0.0889,-0.09961 -0.21191,-0.14844 -0.37305,-0.14844 -0.17578,0 -0.32031,0.06641 -0.42969,0.20117 -0.11035,0.13281 -0.16504,0.37402 -0.16504,0.7207 v 1.8291 h -1.46094 v -3.80957 z m 4.9541,-1.44726 h 1.45996 v 0.99316 h -1.45996 v -0.99316 z m 0,1.44726 h 1.45996 v 3.80957 h -1.45996 v -3.80957 z m 6.62012,2.26758 h -2.92578 c 0.0254,0.2334 0.0889,0.4082 0.18945,0.52246 0.14063,0.16602 0.3252,0.24707 0.55176,0.24707 0.14355,0 0.28027,-0.03516 0.40918,-0.10742 0.0791,-0.04492 0.16406,-0.12402 0.25391,-0.23926 l 1.43848,0.13184 c -0.21973,0.38281 -0.48438,0.65723 -0.79492,0.82422 -0.31152,0.16504 -0.75684,0.24902 -1.33789,0.24902 -0.50391,0 -0.90137,-0.07129 -1.19141,-0.21387 -0.28906,-0.14258 -0.5293,-0.36816 -0.71875,-0.67871 -0.18945,-0.30859 -0.28516,-0.67285 -0.28516,-1.0918 0,-0.59375 0.19141,-1.07715 0.57227,-1.44336 0.38184,-0.36816 0.90723,-0.55371 1.58008,-0.55371 0.54492,0 0.97559,0.08301 1.29102,0.24805 0.31445,0.16406 0.55664,0.4043 0.71973,0.71582 0.16504,0.31348 0.24805,0.72168 0.24805,1.22363 v 0.16602 z m -1.48438,-0.70019 c -0.0293,-0.28223 -0.10449,-0.48438 -0.22656,-0.60645 -0.12402,-0.12109 -0.28613,-0.18359 -0.4873,-0.18359 -0.23145,0 -0.41699,0.09375 -0.55566,0.27832 -0.0889,0.11328 -0.14551,0.28516 -0.16797,0.51172"
   style="fill:#ffffff;fill-opacity:1" />
</svg>