<?xml version="1.0" encoding="UTF-8" standalone="no"?>
<!-- Created with Inkscape (http://www.inkscape.org/) -->

<svg
   xmlns:dc="http://purl.org/dc/elements/1.1/"
   xmlns:cc="http://creativecommons.org/ns#"
   xmlns:rdf="http://www.w3.org/1999/02/22-rdf-syntax-ns#"
   xmlns:svg="http://www.w3.org/2000/svg"
   xmlns="http://www.w3.org/2000/svg"
   version="1.1"
   width="48"
   height="48"
   id="svg2">
  <defs
     id="defs3" />
  <metadata
     id="metadata6">
    <rdf:RDF>
      <cc:Work
         rdf:about="">
        <dc:format>image/svg+xml</dc:format>
        <dc:type
           rdf:resource="http://purl.org/dc/dcmitype/StillImage" />
        <dc:title></dc:title>
      </cc:Work>
    </rdf:RDF>
  </metadata>
  <g
     transform="translate(0,-1004.3622)"
     id="layer1">
    <path
       d="m 23.90625,3.78125 c -7.480622,0 -13.53125,5.43185 -13.53125,13.53125 0,13.9329 13.53125,28.9375 13.53125,28.9375 0,0 13.53125,-15.2697 13.53125,-28.9375 0,-8.453 -6.050628,-13.53125 -13.53125,-13.53125 z"
       transform="translate(0,1004.3622)"
       id="path2997"
       style="color:#000000;fill:#21244c;fill-opacity:0.94117647;fill-rule:nonzero;stroke:none;stroke-width:15;marker:none;visibility:visible;display:inline;overflow:visible;enable-background:accumulate" />
    <path
       d="m -33.536368,3.5034752 -9.793327,-3.32101266 -8.287758,6.18477516 0.132167,-10.3402567 -8.443129,-5.9709254 9.87501,-3.0696176 3.069617,-9.87501 5.970926,8.443129 10.340257,-0.132167 -6.184776,8.2877585 z"
       transform="matrix(0.53606646,0.07562209,-0.07562209,0.53606646,47.339241,1029.277)"
       id="path3008"
       style="color:#000000;fill:#fce94f;fill-opacity:1;fill-rule:nonzero;stroke:none;stroke-width:15;marker:none;visibility:visible;display:inline;overflow:visible;enable-background:accumulate" />
    <path
       d="m -48.71875,1008.1435 c -7.480622,0 -13.53125,5.4318 -13.53125,13.5312 0,13.9329 13.53125,28.9375 13.53125,28.9375 0,0 13.53125,-15.2697 13.53125,-28.9375 0,-8.453 -6.050628,-13.5312 -13.53125,-13.5312 z"
       id="path3778"
       style="color:#000000;fill:#00b0ec;fill-opacity:1;fill-rule:nonzero;stroke:none;stroke-width:15;marker:none;visibility:visible;display:inline;overflow:visible;enable-background:accumulate" />
  </g>
</svg>
