<?xml version="1.0" encoding="UTF-8" standalone="no"?>
<!-- Created with Inkscape (http://www.inkscape.org/) -->

<svg
   xmlns:dc="http://purl.org/dc/elements/1.1/"
   xmlns:cc="http://creativecommons.org/ns#"
   xmlns:rdf="http://www.w3.org/1999/02/22-rdf-syntax-ns#"
   xmlns:svg="http://www.w3.org/2000/svg"
   xmlns="http://www.w3.org/2000/svg"
   xmlns:xlink="http://www.w3.org/1999/xlink"
   xmlns:sodipodi="http://sodipodi.sourceforge.net/DTD/sodipodi-0.dtd"
   xmlns:inkscape="http://www.inkscape.org/namespaces/inkscape"
   width="640"
   height="530"
   id="svg2"
   inkscape:label="Pozadí"
   version="1.1"
   inkscape:version="0.48.4 r9939"
   sodipodi:docname="fotka.svg">
  <defs
     id="defs3">
    <clipPath
       clipPathUnits="userSpaceOnUse"
       id="clipPath3870">
      <path
         sodipodi:nodetypes="ccccccccc"
         inkscape:connector-curvature="0"
         id="path3872"
         d="M 390.53125,522.36218 0,591.23718 l 0,193.71875 47.15625,267.40627 289.65625,0 L 640,998.89343 l 0,-269.84375 0,-206.6875 z"
         style="color:#000000;fill:#eeeeec;fill-opacity:0.4637681;fill-rule:nonzero;stroke:none;stroke-width:15;marker:none;visibility:visible;display:inline;overflow:visible;enable-background:accumulate" />
    </clipPath>
    <clipPath
       clipPathUnits="userSpaceOnUse"
       id="clipPath3940">
      <path
         sodipodi:nodetypes="ccccccccc"
         inkscape:connector-curvature="0"
         id="path3942"
         d="m 3150.5312,522.36218 -390.5312,68.875 0,193.71875 47.1562,267.40627 289.6563,0 303.1875,-53.46877 0,-269.84375 0,-206.6875 z"
         style="color:#000000;fill:#729fcf;fill-opacity:0.4637681;fill-rule:nonzero;stroke:none;stroke-width:15;marker:none;visibility:visible;display:inline;overflow:visible;enable-background:accumulate" />
    </clipPath>
    <clipPath
       clipPathUnits="userSpaceOnUse"
       id="clipPath3945">
      <path
         sodipodi:nodetypes="ccccccccc"
         inkscape:connector-curvature="0"
         id="path3947"
         d="m 2460.5312,522.36218 -390.5312,68.875 0,193.71875 47.1562,267.40627 289.6563,0 303.1875,-53.46877 0,-269.84375 0,-206.6875 z"
         style="color:#000000;fill:#729fcf;fill-opacity:0.4637681;fill-rule:nonzero;stroke:none;stroke-width:15;marker:none;visibility:visible;display:inline;overflow:visible;enable-background:accumulate" />
    </clipPath>
    <clipPath
       clipPathUnits="userSpaceOnUse"
       id="clipPath3950">
      <path
         style="color:#000000;fill:#729fcf;fill-opacity:0.4637681;fill-rule:nonzero;stroke:none;stroke-width:15;marker:none;visibility:visible;display:inline;overflow:visible;enable-background:accumulate"
         d="m 1770.5312,522.36218 -390.5312,68.875 0,193.71875 47.1562,267.40627 289.6563,0 303.1875,-53.46877 0,-269.84375 0,-206.6875 z"
         id="path3952"
         inkscape:connector-curvature="0"
         sodipodi:nodetypes="ccccccccc" />
    </clipPath>
    <clipPath
       clipPathUnits="userSpaceOnUse"
       id="clipPath3955">
      <path
         style="color:#000000;fill:#729fcf;fill-opacity:0.4637681;fill-rule:nonzero;stroke:none;stroke-width:15;marker:none;visibility:visible;display:inline;overflow:visible;enable-background:accumulate"
         d="m -1080.5312,522.36218 390.5312,68.875 0,193.71875 -47.15625,267.40627 -289.65625,0 -303.1875,-53.46877 0,-269.84375 0,-206.6875 z"
         id="path3957"
         inkscape:connector-curvature="0"
         sodipodi:nodetypes="ccccccccc" />
    </clipPath>
    <clipPath
       clipPathUnits="userSpaceOnUse"
       id="clipPath3976">
      <path
         sodipodi:nodetypes="ccccccccc"
         inkscape:connector-curvature="0"
         id="path3978"
         d="m 3840.5312,522.36218 -390.5312,68.875 0,193.71875 47.1562,267.40627 289.6563,0 303.1875,-53.46877 0,-269.84375 0,-206.6875 z"
         style="color:#000000;fill:#fdfdfd;fill-opacity:1;fill-rule:nonzero;stroke:none;stroke-width:15;marker:none;visibility:visible;display:inline;overflow:visible;enable-background:accumulate"
         inkscape:export-filename="mmr.png"
         inkscape:export-xdpi="90"
         inkscape:export-ydpi="90" />
    </clipPath>
    <clipPath
       clipPathUnits="userSpaceOnUse"
       id="clipPath3834">
      <path
         inkscape:export-ydpi="90"
         inkscape:export-xdpi="90"
         inkscape:export-filename="mmr.png"
         style="color:#000000;fill:#fdfdfd;fill-opacity:0.49758456;fill-rule:nonzero;stroke:none;stroke-width:15;marker:none;visibility:visible;display:inline;overflow:visible;enable-background:accumulate"
         d="m 4530.5312,522.36218 -390.5312,68.875 0,193.71875 47.1562,267.40627 289.6563,0 303.1875,-53.4688 0,-269.84372 0,-206.6875 z"
         id="path3836"
         inkscape:connector-curvature="0"
         sodipodi:nodetypes="ccccccccc" />
    </clipPath>
  </defs>
  <sodipodi:namedview
     id="base"
     pagecolor="#ffffff"
     bordercolor="#666666"
     borderopacity="1.0"
     inkscape:pageopacity="0.0"
     inkscape:pageshadow="2"
     inkscape:zoom="0.24748737"
     inkscape:cx="4947.894"
     inkscape:cy="217.24078"
     inkscape:document-units="px"
     inkscape:current-layer="layer1"
     showgrid="false"
     inkscape:window-width="1600"
     inkscape:window-height="1148"
     inkscape:window-x="-8"
     inkscape:window-y="-8"
     inkscape:window-maximized="1"
     inkscape:showpageshadow="false"
     showguides="true"
     inkscape:guide-bbox="true">
    <sodipodi:guide
       orientation="0,1"
       position="1454.6197,52.527932"
       id="guide3935" />
    <sodipodi:guide
       orientation="0,1"
       position="1527.3506,329.30973"
       id="guide3937" />
  </sodipodi:namedview>
  <metadata
     id="metadata6">
    <rdf:RDF>
      <cc:Work
         rdf:about="">
        <dc:format>image/svg+xml</dc:format>
        <dc:type
           rdf:resource="http://purl.org/dc/dcmitype/StillImage" />
        <dc:title></dc:title>
      </cc:Work>
    </rdf:RDF>
  </metadata>
  <g
     inkscape:label="Vrstva 1"
     inkscape:groupmode="layer"
     id="layer1"
     transform="translate(0,-522.36218)">
    <path
       inkscape:export-ydpi="90"
       inkscape:export-xdpi="90"
       inkscape:export-filename="mmr.png"
       style="color:#000000;fill:#fdfdfd;fill-opacity:1;fill-rule:nonzero;stroke:none;stroke-width:15;marker:none;visibility:visible;display:inline;overflow:visible;enable-background:accumulate"
       d="m 3840.5312,522.36218 -390.5312,68.875 0,193.71875 47.1562,267.40627 289.6563,0 303.1875,-53.46877 0,-269.84375 0,-206.6875 z"
       id="path3971"
       inkscape:connector-curvature="0"
       sodipodi:nodetypes="ccccccccc" />
    <image
       sodipodi:absref="D:\wamp\www\epr2014.local\public\_src\Katka-dostalova-cb.jpg"
       xlink:href="Katka-dostalova-cb.jpg"
       inkscape:export-ydpi="90"
       inkscape:export-xdpi="90"
       inkscape:export-filename="dostalovak.png"
       clip-path="url(#clipPath3940)"
       width="897.33746"
       height="1346.0062"
       id="image3908"
       x="2613.8901"
       y="216.10739" />
    <image
       sodipodi:absref="D:\wamp\www\epr2014.local\public\_src\palicka-cb.png"
       xlink:href="palicka-cb.png"
       inkscape:export-ydpi="90"
       inkscape:export-xdpi="90"
       inkscape:export-filename="palicka.png"
       clip-path="url(#clipPath3945)"
       width="1246.8591"
       height="935.14429"
       id="image3882"
       x="1762.5509"
       y="398.80014" />
    <image
       sodipodi:absref="D:\wamp\www\epr2014.local\public\_src\jedlicka-cb.png"
       xlink:href="jedlicka-cb.png"
       inkscape:export-ydpi="90"
       inkscape:export-xdpi="90"
       inkscape:export-filename="jedlicka.png"
       clip-path="url(#clipPath3950)"
       width="665.70612"
       height="812.3316"
       id="image3857"
       x="1368.2842"
       y="437.61707" />
    <image
       sodipodi:absref="D:\wamp\www\epr2014.local\public\_src\klara-dostalova-cb.png"
       xlink:href="klara-dostalova-cb.png"
       inkscape:export-ydpi="90"
       inkscape:export-xdpi="90"
       inkscape:export-filename="dostalova.png"
       clip-path="url(#clipPath3955)"
       transform="scale(-1,1)"
       width="1221.1495"
       height="1831.7245"
       id="image3842"
       x="-1578.9581"
       y="57.854019" />
    <image
       sodipodi:absref="D:\wamp\www\epr2014.local\public\_src\Stefania_Koczar-Sikora_CB.png"
       xlink:href="Stefania_Koczar-Sikora_CB.png"
       inkscape:export-ydpi="90"
       inkscape:export-xdpi="90"
       inkscape:export-filename="sikora.png"
       clip-path="url(#clipPath3870)"
       width="1316.6803"
       height="1753.7676"
       id="image3815"
       x="-317.05328"
       y="274.13519" />
    <path
       style="color:#000000;fill:#ef2929;fill-opacity:1;fill-rule:nonzero;stroke:none;stroke-width:15;marker:none;visibility:visible;display:inline;overflow:visible;enable-background:accumulate"
       d="m 0,442.36218 0,68.875 390.53125,-68.875 -390.53125,0 z"
       id="path3779"
       inkscape:connector-curvature="0" />
    <path
       style="color:#000000;fill:#21244c;fill-opacity:1;fill-rule:nonzero;stroke:none;stroke-width:15;marker:none;visibility:visible;display:inline;overflow:visible;enable-background:accumulate"
       d="m 0,784.95593 0,267.40627 47.15625,0 L 0,784.95593 z"
       id="path3777" />
    <path
       style="color:#000000;fill:#21244c;fill-opacity:1;fill-rule:nonzero;stroke:none;stroke-width:15;marker:none;visibility:visible;display:inline;overflow:visible;enable-background:accumulate"
       d="m 640,998.89343 -303.1875,53.46877 303.1875,0 0,-53.46877 z"
       id="rect3772" />
    <path
       sodipodi:nodetypes="ccccccccc"
       inkscape:connector-curvature="0"
       id="path3818"
       d="M 390.53125,-327.63782 0,-258.76282 0,-65.04407 47.15625,202.3622 l 289.65625,0 L 640,148.89343 l 0,-269.84375 0,-206.6875 z"
       style="color:#000000;fill:#eeeeec;fill-opacity:0.4637681;fill-rule:nonzero;stroke:none;stroke-width:15;marker:none;visibility:visible;display:inline;overflow:visible;enable-background:accumulate" />
    <path
       id="path3915"
       d="m 690,784.95593 0,267.40627 47.15625,0 L 690,784.95593 z"
       style="color:#000000;fill:#21244c;fill-opacity:1;fill-rule:nonzero;stroke:none;stroke-width:15;marker:none;visibility:visible;display:inline;overflow:visible;enable-background:accumulate"
       inkscape:connector-curvature="0" />
    <path
       id="path3917"
       d="m 1330,998.89343 -303.1875,53.46877 303.1875,0 0,-53.46877 z"
       style="color:#000000;fill:#21244c;fill-opacity:1;fill-rule:nonzero;stroke:none;stroke-width:15;marker:none;visibility:visible;display:inline;overflow:visible;enable-background:accumulate"
       inkscape:connector-curvature="0" />
    <path
       inkscape:connector-curvature="0"
       style="color:#000000;fill:#21244c;fill-opacity:1;fill-rule:nonzero;stroke:none;stroke-width:15;marker:none;visibility:visible;display:inline;overflow:visible;enable-background:accumulate"
       d="m 1380,784.95593 0,267.40627 47.1562,0 L 1380,784.95593 z"
       id="path3919" />
    <path
       inkscape:connector-curvature="0"
       style="color:#000000;fill:#21244c;fill-opacity:1;fill-rule:nonzero;stroke:none;stroke-width:15;marker:none;visibility:visible;display:inline;overflow:visible;enable-background:accumulate"
       d="m 2020,998.89343 -303.1875,53.46877 303.1875,0 0,-53.46877 z"
       id="path3921" />
    <path
       id="path3923"
       d="m 2070,784.95593 0,267.40627 47.1562,0 L 2070,784.95593 z"
       style="color:#000000;fill:#21244c;fill-opacity:1;fill-rule:nonzero;stroke:none;stroke-width:15;marker:none;visibility:visible;display:inline;overflow:visible;enable-background:accumulate"
       inkscape:connector-curvature="0" />
    <path
       id="path3925"
       d="m 2710,998.89343 -303.1875,53.46877 303.1875,0 0,-53.46877 z"
       style="color:#000000;fill:#21244c;fill-opacity:1;fill-rule:nonzero;stroke:none;stroke-width:15;marker:none;visibility:visible;display:inline;overflow:visible;enable-background:accumulate"
       inkscape:connector-curvature="0" />
    <path
       inkscape:connector-curvature="0"
       style="color:#000000;fill:#21244c;fill-opacity:1;fill-rule:nonzero;stroke:none;stroke-width:15;marker:none;visibility:visible;display:inline;overflow:visible;enable-background:accumulate"
       d="m 2760,784.95593 0,267.40627 47.1562,0 L 2760,784.95593 z"
       id="path3927" />
    <path
       inkscape:connector-curvature="0"
       style="color:#000000;fill:#21244c;fill-opacity:1;fill-rule:nonzero;stroke:none;stroke-width:15;marker:none;visibility:visible;display:inline;overflow:visible;enable-background:accumulate"
       d="m 3400,998.89343 -303.1875,53.46877 303.1875,0 0,-53.46877 z"
       id="path3929" />
    <path
       id="path3931"
       d="m 3450,784.95593 0,267.40627 47.1562,0 L 3450,784.95593 z"
       style="color:#000000;fill:#21244c;fill-opacity:1;fill-rule:nonzero;stroke:none;stroke-width:15;marker:none;visibility:visible;display:inline;overflow:visible;enable-background:accumulate"
       inkscape:connector-curvature="0" />
    <path
       id="path3933"
       d="m 4090,998.89343 -303.1875,53.46877 303.1875,0 0,-53.46877 z"
       style="color:#000000;fill:#21244c;fill-opacity:1;fill-rule:nonzero;stroke:none;stroke-width:15;marker:none;visibility:visible;display:inline;overflow:visible;enable-background:accumulate"
       inkscape:connector-curvature="0" />
    <path
       id="path3960"
       d="m 3300.9618,1293.4783 v -83.5003 c 0,0 5.4338,-51.2575 67.1613,-67.1612 0,0 99.4133,-36.2977 177.276,-70.1885 40.2691,-17.5147 48.9338,-28.0401 89.5544,-45.9899 0,0 4.2402,-20.8566 2.7128,-33.27058 h 31.7707 c 0,0 7.2575,4.23055 0,-44.77725 0,0 -38.7232,-10.27556 -40.5283,-88.3326 0,0 -29.0862,9.79416 -30.8635,-37.51034 -1.2127,-32.06708 -26.0222,-59.90361 9.6828,-82.88934 l -18.1534,-49.00783 c 0,0 -36.2973,-197.84574 68.0686,-168.80579 -44.0275,-52.63668 249.5751,-105.26408 268.6452,61.71801 0,0 13.5989,90.15631 0,151.86507 0,0 42.8796,-4.96189 14.2099,77.45532 0,0 -15.728,59.29261 -39.9358,45.98073 0,0 3.9527,75.02066 -34.1684,87.74012 0,0 2.7123,39.92652 2.7123,42.64811 l 36.3161,5.44328 c 0,0 -5.4617,32.67799 0.9071,36.29759 0,0 43.0556,29.4936 94.3777,42.6667 98.9321,25.3925 215.9991,68.9664 215.9991,107.0875 0,0 9.9886,50.8225 9.9886,112.5312 h -925.7332 z"
       inkscape:connector-curvature="0"
       style="fill:#cfcfcf;fill-opacity:1"
       clip-path="url(#clipPath3976)"
       inkscape:export-filename="mmr.png"
       inkscape:export-xdpi="90"
       inkscape:export-ydpi="90" />
    <path
       sodipodi:nodetypes="ccccccccc"
       inkscape:connector-curvature="0"
       id="path3017"
       d="m 4530.5312,522.36218 -390.5312,68.875 0,193.71875 47.1562,267.40627 289.6563,0 303.1875,-53.46877 0,-269.84375 0,-206.6875 z"
       style="color:#000000;fill:#fdfdfd;fill-opacity:1;fill-rule:nonzero;stroke:none;stroke-width:15;marker:none;visibility:visible;display:inline;overflow:visible;enable-background:accumulate"
       inkscape:export-filename="mmr.png"
       inkscape:export-xdpi="90"
       inkscape:export-ydpi="90" />
    <path
       inkscape:connector-curvature="0"
       style="color:#000000;fill:#21244c;fill-opacity:1;fill-rule:nonzero;stroke:none;stroke-width:15;marker:none;visibility:visible;display:inline;overflow:visible;enable-background:accumulate"
       d="m 4140,784.95593 0,267.40627 47.1562,0 L 4140,784.95593 z"
       id="path3019" />
    <path
       inkscape:connector-curvature="0"
       style="color:#000000;fill:#21244c;fill-opacity:1;fill-rule:nonzero;stroke:none;stroke-width:15;marker:none;visibility:visible;display:inline;overflow:visible;enable-background:accumulate"
       d="m 4780,998.89343 -303.1875,53.46877 303.1875,0 0,-53.46877 z"
       id="path3021" />
    <image
       y="283.05115"
       x="3765.7515"
       id="image3035"
       xlink:href="file:///C:/Users/vybiral/Desktop/milena-vicenova01_cb.jpg"
       height="2139.8057"
       width="1449.0172"
       clip-path="url(#clipPath3834)"
       inkscape:export-filename="D:\wamp\www\epr2014.local\public\assets\img\vicenova.png"
       inkscape:export-xdpi="90"
       inkscape:export-ydpi="90" />
  </g>
</svg>
